<svg width="38" height="38" viewBox="0 0 38 38" fill="none" xmlns="http://www.w3.org/2000/svg">
<path d="M34.7852 29.0226C34.7852 29.5926 34.6585 30.1784 34.3893 30.7484C34.1202 31.3184 33.7719 31.8568 33.3127 32.3634C32.5369 33.2184 31.6818 33.8359 30.716 34.2318C29.766 34.6276 28.7369 34.8334 27.6285 34.8334C26.0135 34.8334 24.2877 34.4534 22.4668 33.6776C20.646 32.9018 18.8252 31.8568 17.0202 30.5426C15.1993 29.2126 13.4735 27.7401 11.8268 26.1092C10.196 24.4626 8.72352 22.7368 7.40935 20.9318C6.11102 19.1268 5.06602 17.3218 4.30602 15.5326C3.54602 13.7276 3.16602 12.0017 3.16602 10.3551C3.16602 9.27842 3.35602 8.24925 3.73602 7.29925C4.11602 6.33342 4.71768 5.44675 5.55685 4.65508C6.57018 3.65758 7.67852 3.16675 8.85018 3.16675C9.29352 3.16675 9.73685 3.26175 10.1327 3.45175C10.5443 3.64175 10.9085 3.92675 11.1935 4.33841L14.8668 9.51592C15.1518 9.91175 15.3577 10.2759 15.5002 10.6242C15.6427 10.9567 15.7218 11.2892 15.7218 11.5901C15.7218 11.9701 15.611 12.3501 15.3893 12.7142C15.1835 13.0784 14.8827 13.4584 14.5027 13.8384L13.2993 15.0892C13.1252 15.2634 13.046 15.4692 13.046 15.7226C13.046 15.8492 13.0618 15.9601 13.0935 16.0867C13.141 16.2134 13.1885 16.3084 13.2202 16.4034C13.5052 16.9259 13.996 17.6068 14.6927 18.4301C15.4052 19.2534 16.1652 20.0926 16.9885 20.9318C17.8435 21.7709 18.6668 22.5467 19.506 23.2592C20.3293 23.9559 21.0102 24.4309 21.5485 24.7159C21.6277 24.7476 21.7227 24.7951 21.8335 24.8426C21.9602 24.8901 22.0868 24.9059 22.2293 24.9059C22.4985 24.9059 22.7043 24.8109 22.8785 24.6368L24.0818 23.4493C24.4777 23.0534 24.8577 22.7526 25.2218 22.5626C25.586 22.3409 25.9502 22.2301 26.346 22.2301C26.6468 22.2301 26.9635 22.2934 27.3118 22.4359C27.6602 22.5784 28.0244 22.7843 28.4202 23.0534L33.661 26.7743C34.0727 27.0593 34.3577 27.3917 34.5318 27.7876C34.6902 28.1834 34.7852 28.5793 34.7852 29.0226Z" stroke="#303439" stroke-width="2.5" stroke-miterlimit="10"/>
</svg>
