<svg width="38" height="38" viewBox="0 0 38 38" fill="none" xmlns="http://www.w3.org/2000/svg">
<path d="M34.8332 18.2082V24.5415C34.8332 30.0832 31.6665 32.4582 26.9165 32.4582H11.0832C6.33317 32.4582 3.1665 30.0832 3.1665 24.5415V13.4582C3.1665 7.9165 6.33317 5.5415 11.0832 5.5415H18.9998" stroke="#303439" stroke-width="2.5" stroke-miterlimit="10" stroke-linecap="round" stroke-linejoin="round"/>
<path d="M11.0835 14.25L16.0393 18.2083C17.6702 19.5067 20.346 19.5067 21.9768 18.2083" stroke="#303439" stroke-width="2.5" stroke-miterlimit="10" stroke-linecap="round" stroke-linejoin="round"/>
<path d="M30.8431 4.46479L31.2864 5.36727C31.5081 5.81061 32.0623 6.22228 32.5531 6.31728L33.1548 6.41228C34.9598 6.71311 35.3873 8.04311 34.0889 9.35728L33.5347 9.91143C33.1706 10.2914 32.9648 11.0198 33.0756 11.5264L33.1548 11.8589C33.6456 14.044 32.4898 14.8831 30.5898 13.7431L30.1781 13.5056C29.6873 13.2206 28.8956 13.2206 28.4048 13.5056L27.9931 13.7431C26.0772 14.8989 24.9214 14.044 25.4281 11.8589L25.5072 11.5264C25.6181 11.0198 25.4123 10.2914 25.0481 9.91143L24.4939 9.35728C23.1956 8.04311 23.6231 6.71311 25.4281 6.41228L26.0298 6.31728C26.5048 6.23812 27.0747 5.81061 27.2964 5.36727L27.7397 4.46479C28.5947 2.73895 29.9881 2.73895 30.8431 4.46479Z" stroke="#303439" stroke-width="2.5" stroke-linecap="round" stroke-linejoin="round"/>
</svg>
