<svg width="38" height="38" viewBox="0 0 38 38" fill="none" xmlns="http://www.w3.org/2000/svg">
<path d="M14.2494 34.8334H23.7494C31.666 34.8334 34.8327 31.6668 34.8327 23.7501V14.2501C34.8327 6.33342 31.666 3.16675 23.7494 3.16675H14.2494C6.33268 3.16675 3.16602 6.33342 3.16602 14.2501V23.7501C3.16602 31.6668 6.33268 34.8334 14.2494 34.8334Z" stroke="#303439" stroke-width="2.5" stroke-linecap="round" stroke-linejoin="round"/>
<path d="M19.0007 24.5416C22.0612 24.5416 24.5423 22.0605 24.5423 18.9999C24.5423 15.9393 22.0612 13.4583 19.0007 13.4583C15.9401 13.4583 13.459 15.9393 13.459 18.9999C13.459 22.0605 15.9401 24.5416 19.0007 24.5416Z" stroke="#303439" stroke-width="2.5" stroke-linecap="round" stroke-linejoin="round"/>
<path d="M27.9232 11.0834H27.9415" stroke="#303439" stroke-width="2.5" stroke-linecap="round" stroke-linejoin="round"/>
</svg>
