<svg width="38" height="38" viewBox="0 0 38 38" fill="none" xmlns="http://www.w3.org/2000/svg">
<path d="M14.2498 34.8332H23.7498C31.6665 34.8332 34.8332 31.6665 34.8332 23.7498V14.2498C34.8332 6.33317 31.6665 3.1665 23.7498 3.1665H14.2498C6.33317 3.1665 3.1665 6.33317 3.1665 14.2498V23.7498C3.1665 31.6665 6.33317 34.8332 14.2498 34.8332Z" stroke="#303439" stroke-width="2.5" stroke-linecap="round" stroke-linejoin="round"/>
<path d="M19.0002 24.5418C22.0607 24.5418 24.5418 22.0607 24.5418 19.0002C24.5418 15.9396 22.0607 13.4585 19.0002 13.4585C15.9396 13.4585 13.4585 15.9396 13.4585 19.0002C13.4585 22.0607 15.9396 24.5418 19.0002 24.5418Z" stroke="#303439" stroke-width="2.5" stroke-linecap="round" stroke-linejoin="round"/>
<path d="M27.9237 11.0832H27.942" stroke="#303439" stroke-width="2.5" stroke-linecap="round" stroke-linejoin="round"/>
</svg>
