<svg width="355" height="100" viewBox="0 0 355 100" fill="none" xmlns="http://www.w3.org/2000/svg">
<path d="M142.166 42.8561H131.353C128.867 42.8561 126.779 41.9529 125.093 40.1465C123.407 38.3401 122.561 36.1008 122.561 33.4245V15.8056H127.355V33.4245C127.355 34.619 127.736 35.6304 128.498 36.4587C129.261 37.2912 130.209 37.7074 131.349 37.7074H142.162C143.297 37.7074 144.246 37.2912 145.012 36.4587C145.774 35.6263 146.155 34.6149 146.155 33.4245V15.8056H150.949V33.0457C150.949 35.6846 150.149 37.9613 148.55 39.876C146.851 41.8614 144.722 42.8561 142.166 42.8561Z" fill="#282525"/>
<path d="M180.14 42.8561V25.2373C180.14 24.0427 179.759 23.0313 178.996 22.203C178.234 21.3705 177.281 20.9543 176.146 20.9543H165.333C164.198 20.9543 163.245 21.3705 162.483 22.203C161.72 23.0354 161.339 24.0469 161.339 25.2373V42.8561H156.546V25.2373C156.546 22.5276 157.379 20.2759 159.048 18.4861C160.718 16.6963 162.81 15.8014 165.333 15.8014H176.146C178.665 15.8014 180.761 16.7588 182.431 18.6734C184.1 20.588 184.933 22.9023 184.933 25.6119V42.852H180.14V42.8561Z" fill="#282525"/>
<path d="M188.343 13.7411V8.70061H193.401V13.7411H188.343ZM188.343 42.8561V16.1302H193.401V42.8561H188.343Z" fill="#282525"/>
<path d="M210.872 42.8561H206.986L195.054 19.0563L195.108 15.8056H198.804L208.921 35.6263L219.029 15.8056H222.696L222.75 19.0064L210.872 42.8561Z" fill="#282525"/>
<path d="M244.533 34.9395H235.85L235.796 29.7908H244.529C247.193 29.7908 248.523 28.1467 248.523 24.8585C248.523 23.5557 248.158 22.4902 247.429 21.6577C246.7 20.8253 245.73 20.4091 244.521 20.4091L233.09 20.5714C231.951 20.5714 231.052 20.9959 230.393 21.845C229.735 22.6941 229.407 23.7514 229.407 25.0167V33.0415C229.407 34.3068 229.764 35.4098 230.476 36.3505C231.189 37.2912 232.096 37.7615 233.198 37.7615H250.926V42.9102H233.244C230.688 42.9102 228.608 41.9987 227.013 40.1715C225.414 38.3484 224.614 36.0592 224.614 33.3121V24.8543C224.614 22.0698 225.393 19.8055 226.959 18.0491C228.521 16.2967 230.58 15.4185 233.136 15.4185H244.802C247.5 15.4185 249.612 16.4133 251.141 18.3987C252.595 20.2426 253.324 22.6109 253.324 25.4995C253.324 28.1384 252.508 30.3693 250.876 32.1966C249.24 34.028 247.127 34.9395 244.533 34.9395Z" fill="#282525"/>
<path d="M265.19 20.5755C264.092 20.5755 263.189 21.0542 262.48 22.0115C261.772 22.9688 261.42 24.0635 261.42 25.2914V42.9102H256.626V25.0208C256.626 22.3112 257.43 20.0344 259.046 18.1906C260.657 16.3467 262.704 15.4268 265.186 15.4268H281.078V20.5755H265.19Z" fill="#282525"/>
<path d="M302.004 42.802H284.376V37.6533H301.258C302.857 37.6533 303.657 36.5503 303.657 34.3443C303.657 32.3922 302.944 31.4182 301.527 31.4182H290.072C288.084 31.4182 286.451 30.6066 285.171 28.9791C283.965 27.4599 283.361 25.616 283.361 23.4475C283.361 21.279 283.982 19.4018 285.225 17.8076C286.468 16.2177 288.084 15.4227 290.072 15.4227H307.7V20.5714H290.818C289.219 20.5714 288.419 21.4912 288.419 23.3351C288.419 25.2872 289.111 26.2612 290.495 26.2612H302C303.988 26.2612 305.604 27.0479 306.847 28.6212C308.09 30.1945 308.711 32.0634 308.711 34.2319C308.711 36.5087 308.16 38.4608 307.058 40.0882C305.857 41.8988 304.166 42.802 302.004 42.802Z" fill="#282525"/>
<path d="M334.546 42.9102V28.3257H319.528C318.215 28.3257 317.221 28.7918 316.545 29.7159C315.87 30.6441 315.535 31.8345 315.535 33.2871C315.535 34.4858 315.924 35.5305 316.707 36.4213C317.486 37.312 318.43 37.7574 319.528 37.7574H331.514V42.9061H319.528C316.794 42.9061 314.644 41.928 313.082 39.9717C311.52 38.0154 310.737 35.568 310.737 32.6336C310.737 29.9531 311.578 27.7055 313.268 25.8907C314.955 24.0802 317.043 23.1728 319.528 23.1728H334.227C333.374 21.4371 332.222 20.5714 330.764 20.5714H314.681V15.4227H330.731C333.246 15.4227 335.309 16.3425 336.924 18.1864C338.536 20.0303 339.344 22.307 339.344 25.0167V42.9102H334.546Z" fill="#282525"/>
<path d="M351.429 42.9102C349.121 42.9102 347.211 41.9904 345.703 40.1465C344.195 38.3026 343.441 36.0259 343.441 33.3162V6.64445H347.916V33.0457C347.916 34.311 348.243 35.414 348.902 36.3547C349.556 37.2954 350.401 37.7657 351.433 37.7657H355V42.9144H351.429V42.9102Z" fill="#282525"/>
<path d="M131.875 56.038C130.777 56.038 129.874 56.5208 129.165 57.4823C128.457 58.448 128.105 59.5468 128.105 60.783V65.2533H147.597V70.402H128.105V78.3727H123.311V60.4833C123.311 57.7737 124.115 55.4969 125.731 53.653C127.342 51.8092 129.389 50.8893 131.871 50.8893H147.763V56.038H131.875Z" fill="#1179BF"/>
<path d="M152.072 78.3228V50.8352H156.065V78.3228H152.072Z" fill="#1179BF"/>
<path d="M168.316 78.3769C165.83 78.3769 163.779 77.457 162.164 75.6131C160.548 73.7693 159.74 71.4925 159.74 68.7829V50.8935H164.533V68.5123C164.533 69.7776 164.881 70.8806 165.573 71.8213C166.265 72.762 167.181 73.2323 168.316 73.2323H184.241V78.381H168.316V78.3769Z" fill="#1179BF"/>
<path d="M195.957 56.421V78.3228H191.164V56.421H178.967V51.2722H208.208V56.421H195.957Z" fill="#1179BF"/>
<path d="M218.541 78.3769C216.055 78.3769 214.004 77.457 212.388 75.6131C210.773 73.7693 209.965 71.4925 209.965 68.7829V60.4833C209.965 57.7737 210.773 55.4969 212.388 53.653C214.004 51.8092 216.055 50.8893 218.541 50.8893H234.466V56.038H218.541C217.438 56.038 216.535 56.5208 215.823 57.4865C215.11 58.4521 214.758 59.5551 214.758 60.7955V62.5436H234.304V67.6923H214.758V68.5498C214.758 69.7651 215.114 70.8515 215.823 71.8005C216.531 72.7495 217.438 73.224 218.541 73.224H234.466V78.3727H218.541V78.3769Z" fill="#1179BF"/>
<path d="M258.387 70.7225L265.733 74.2729L265.679 78.2687H261.577L244.744 70.1356V65.5821H257.157C260.173 65.5821 261.685 63.9463 261.685 60.6789C261.685 57.8028 260.247 56.3668 257.372 56.3668C256.237 56.3668 254.53 56.3668 252.26 56.3668C249.985 56.3668 248.283 56.3668 247.147 56.3668C246.012 56.3668 245.059 56.7831 244.297 57.6155C243.535 58.448 243.154 59.4594 243.154 60.6498V78.2687H238.36V61.0827C238.36 58.373 239.193 56.0505 240.863 54.115C242.532 52.1838 244.624 51.214 247.147 51.214H257.96C260.657 51.214 262.787 52.2087 264.353 54.1941C265.774 56.038 266.482 58.423 266.482 61.3449C266.482 63.7299 265.782 65.7819 264.378 67.4967C262.973 69.2157 260.976 70.2896 258.387 70.7225Z" fill="#1179BF"/>
<path d="M40.2002 86.6265C39.0526 87.846 37.1386 87.9001 35.9247 86.7472L12.596 64.5873C11.3821 63.4344 11.3282 61.5114 12.4758 60.2919C13.6234 59.0723 15.5374 59.0182 16.7513 60.1711L40.0801 82.331C41.2898 83.484 41.3437 85.4069 40.2002 86.6265Z" fill="#1179BF"/>
<path d="M46.7005 79.7171C45.5529 80.9367 43.6389 80.9908 42.425 79.8378L19.0962 57.6779C17.8823 56.525 17.8285 54.602 18.976 53.3825C20.1236 52.1629 22.0377 52.1088 23.2515 53.2618L46.5803 75.4217C47.7942 76.5746 47.8481 78.4976 46.7005 79.7171Z" fill="#1179BF"/>
<path d="M9.30233 36.9707L9.09518 36.7751C7.80674 35.5514 7.74874 33.5035 8.96675 32.2091L29.4121 10.482C30.6301 9.18758 32.6684 9.12931 33.9568 10.353L34.164 10.5487C35.4524 11.7724 35.5104 13.8202 34.2924 15.1146L13.8471 36.8417C12.625 38.1403 10.5908 38.1986 9.30233 36.9707Z" fill="#1179BF"/>
<path d="M64.4404 89.3403L64.2333 89.1447C62.9449 87.9209 62.8868 85.8731 64.1049 84.5786L84.5502 62.8516C85.7682 61.5572 87.8065 61.4989 89.095 62.7226L89.3021 62.9182C90.5906 64.1419 90.6486 66.1898 89.4305 67.4842L68.9852 89.2112C67.7672 90.5099 65.7289 90.5681 64.4404 89.3403Z" fill="#1179BF"/>
<path d="M53.2007 72.8078C52.0531 74.0273 50.1391 74.0814 48.9252 72.9285L25.5964 50.7686C24.3826 49.6156 24.3287 47.6927 25.4763 46.4731C26.6239 45.2536 28.5379 45.1995 29.7518 46.3524L53.0806 68.5123C54.2944 69.6653 54.3483 71.5882 53.2007 72.8078Z" fill="#1179BF"/>
<path d="M59.7051 65.8942C58.5575 67.1138 56.6435 67.1679 55.4296 66.015L32.1008 43.8551C30.8869 42.7021 30.8331 40.7792 31.9807 39.5596C33.1283 38.3401 35.0423 38.286 36.2562 39.4389L59.5849 61.5988C60.7988 62.7559 60.8527 64.6789 59.7051 65.8942Z" fill="#1179BF"/>
<path d="M40.975 99.1632L37.4618 95.8251L93.9505 35.7928C94.1079 35.6263 94.3648 35.618 94.5305 35.7761L97.1985 38.311C98.7231 39.7594 98.7894 42.1735 97.3477 43.7052L45.2794 99.0425C44.1236 100.27 42.1971 100.325 40.975 99.1632Z" fill="#282525"/>
<path d="M4.16511 64.2043L1.18221 61.3699C-0.334102 59.9297 -0.400389 57.5322 1.03306 56.0089L52.6166 1.18772C54.05 -0.335665 56.4363 -0.402255 57.9526 1.03789L60.9355 3.87239L4.16511 64.2043Z" fill="#282525"/>
<path d="M65.9899 59.0765C64.8423 60.296 62.9283 60.3501 61.7144 59.1972L38.3856 37.0373C37.1718 35.8844 37.1179 33.9614 38.2655 32.7418C39.4131 31.5223 41.3271 31.4682 42.541 32.6211L65.8698 54.781C67.0836 55.934 67.1375 57.8569 65.9899 59.0765Z" fill="#1179BF"/>
<path d="M72.4902 52.1671C71.3426 53.3866 69.4285 53.4407 68.2147 52.2878L44.8859 30.1279C43.672 28.975 43.6181 27.052 44.7657 25.8325C45.9133 24.6129 47.8273 24.5588 49.0412 25.7118L72.37 47.8716C73.5839 49.0246 73.6377 50.9476 72.4902 52.1671Z" fill="#1179BF"/>
<path d="M78.9945 45.2578C77.8469 46.4773 75.9329 46.5314 74.719 45.3785L51.3903 23.2186C50.1764 22.0656 50.1225 20.1427 51.2701 18.9231C52.4177 17.7036 54.3317 17.6495 55.5456 18.8024L78.8744 40.9623C80.0883 42.1152 80.1421 44.0382 78.9945 45.2578Z" fill="#1179BF"/>
<path d="M85.4948 38.3442C84.3472 39.5638 82.4332 39.6179 81.2193 38.465L57.8905 16.3051C56.6766 15.1521 56.6228 13.2292 57.7704 12.0096C58.9179 10.7901 60.832 10.736 62.0458 11.8889L85.3746 34.0488C86.5885 35.2059 86.6424 37.1247 85.4948 38.3442Z" fill="#1179BF"/>
</svg>
