<svg width="38" height="38" viewBox="0 0 38 38" fill="none" xmlns="http://www.w3.org/2000/svg">
<path d="M34.7857 29.0223C34.7857 29.5923 34.659 30.1782 34.3898 30.7482C34.1207 31.3182 33.7723 31.8565 33.3132 32.3632C32.5373 33.2182 31.6823 33.8357 30.7165 34.2315C29.7665 34.6273 28.7373 34.8332 27.629 34.8332C26.014 34.8332 24.2882 34.4532 22.4673 33.6773C20.6465 32.9015 18.8257 31.8565 17.0207 30.5423C15.1998 29.2123 13.474 27.7398 11.8273 26.109C10.1965 24.4623 8.724 22.7365 7.40984 20.9315C6.1115 19.1265 5.0665 17.3215 4.3065 15.5323C3.5465 13.7273 3.1665 12.0015 3.1665 10.3548C3.1665 9.27817 3.3565 8.249 3.7365 7.299C4.1165 6.33317 4.71817 5.4465 5.55734 4.65484C6.57067 3.65734 7.679 3.1665 8.85067 3.1665C9.294 3.1665 9.73734 3.2615 10.1332 3.4515C10.5448 3.6415 10.909 3.9265 11.194 4.33817L14.8673 9.51567C15.1523 9.9115 15.3582 10.2757 15.5007 10.624C15.6432 10.9565 15.7223 11.289 15.7223 11.5898C15.7223 11.9698 15.6115 12.3498 15.3898 12.714C15.184 13.0782 14.8832 13.4582 14.5032 13.8382L13.2998 15.089C13.1257 15.2632 13.0465 15.469 13.0465 15.7223C13.0465 15.849 13.0623 15.9598 13.094 16.0865C13.1415 16.2132 13.189 16.3082 13.2207 16.4032C13.5057 16.9257 13.9965 17.6065 14.6932 18.4298C15.4057 19.2532 16.1657 20.0923 16.989 20.9315C17.844 21.7707 18.6673 22.5465 19.5065 23.259C20.3298 23.9557 21.0107 24.4307 21.549 24.7157C21.6282 24.7473 21.7232 24.7948 21.834 24.8423C21.9607 24.8898 22.0873 24.9057 22.2298 24.9057C22.499 24.9057 22.7048 24.8107 22.879 24.6365L24.0823 23.449C24.4782 23.0532 24.8582 22.7523 25.2223 22.5623C25.5865 22.3407 25.9507 22.2298 26.3465 22.2298C26.6473 22.2298 26.964 22.2932 27.3123 22.4357C27.6607 22.5782 28.0248 22.784 28.4207 23.0532L33.6615 26.774C34.0732 27.059 34.3582 27.3915 34.5323 27.7873C34.6907 28.1832 34.7857 28.579 34.7857 29.0223Z" stroke="#303439" stroke-width="2.5" stroke-miterlimit="10"/>
</svg>
