<svg width="270" height="64" viewBox="0 0 270 64" fill="none" xmlns="http://www.w3.org/2000/svg">
<path fill-rule="evenodd" clip-rule="evenodd" d="M15.9098 34.3157H16.994C17.9367 34.3157 18.2953 34.3491 18.7127 34.5148C19.2968 34.739 19.7506 35.3141 19.7506 35.9838C19.7506 36.6438 19.3696 37.2411 18.8205 37.4653C18.3429 37.6532 17.8904 37.6881 17.1509 37.6881H15.9098V34.3157V34.3157ZM15.0273 38.4747H17.2461C18.2841 38.4873 18.8682 38.4288 19.6204 37.993C20.2409 37.5822 20.6345 36.8178 20.6345 35.9838C20.6345 34.9855 20.0504 34.1988 19.1679 33.8465C19.4775 33.5986 20.133 33.1183 20.133 32.0949C20.133 31.7426 20.0266 29.7821 17.2461 29.7821H15.0273V38.4747ZM15.9098 30.5674H17.0906C17.9969 30.5674 18.5334 30.7206 18.8794 31.1091C19.1192 31.3682 19.2513 31.708 19.2492 32.0601C19.2492 32.578 18.9508 33.0723 18.5334 33.2826C18.1048 33.4942 17.7112 33.5304 17.0178 33.5304H15.9098V30.5674V30.5674ZM33.2103 29.7821V35.1985C33.2103 35.832 33.3055 36.4085 33.5086 36.7719C34.0451 37.7465 34.915 37.8426 35.3338 37.8426C35.7512 37.8426 36.6225 37.7479 37.1589 36.7719C37.3621 36.4085 37.4573 35.832 37.4573 35.1985V29.7821H38.3398V35.1985C38.3398 35.9253 38.2207 36.5491 38.005 37.0072C37.3957 38.3118 36.156 38.6293 35.3338 38.6293C34.5102 38.6293 33.2691 38.3104 32.6626 37.0072C32.4469 36.5491 32.3278 35.9267 32.3278 35.1985V29.7821H33.2103ZM50.8553 29.7821H51.7364V38.4747H50.8553V29.7821ZM64.5223 29.7821H65.4062V37.6881H69.0565V38.4747H64.5223V29.7821ZM81.2625 30.5674H82.5385C83.8384 30.5674 84.662 30.7317 85.4479 31.2372C85.9092 31.5649 86.2861 31.9965 86.5475 32.4967C86.809 32.9969 86.9477 33.5515 86.9522 34.1152C86.9522 35.6301 86.1062 36.5352 85.5669 36.9821C84.5528 37.6881 83.3369 37.6881 82.5385 37.6881H81.2625V30.5674ZM80.38 38.4747H82.9546C84.0401 38.4747 85.1145 38.2158 85.8303 37.7577C87.5111 36.6995 87.8333 34.9618 87.8333 34.15C87.8333 33.1057 87.3795 31.4488 85.8303 30.4964C85.1145 30.0383 84.0401 29.7808 82.9546 29.7808H80.38V38.4747V38.4747ZM99.9819 29.7821H100.864V38.4747H99.9819V29.7821ZM113.303 29.7821H114.495L119.423 36.9946H119.445V29.7821H120.329V38.4747H119.445L114.209 30.8264H114.185V38.4747H113.303V29.7821V29.7821ZM141.536 34.4814C141.333 37.0643 139.044 38.6293 136.872 38.6293C134.235 38.6293 132.136 36.5254 132.136 34.1291C132.136 31.8735 134.032 29.6304 136.859 29.6304C139.195 29.6304 140.687 31.2163 141.035 32.0963H140.009C139.509 31.24 138.338 30.4171 136.872 30.4171C134.64 30.4171 133.018 32.2021 133.018 34.1417C133.018 36.0813 134.64 37.8426 136.907 37.8426C138.779 37.8426 140.162 36.4795 140.473 35.2695H135.547V34.4828H141.536V34.4814Z" fill="#1A3B73"/>
<path fill-rule="evenodd" clip-rule="evenodd" d="M185.389 34.4814C185.186 37.0643 182.894 38.6293 180.724 38.6293C178.087 38.6293 175.988 36.5254 175.988 34.1291C175.988 31.8735 177.885 29.6304 180.713 29.6304C183.049 29.6304 184.54 31.2163 184.887 32.0963H183.862C183.359 31.24 182.191 30.4171 180.724 30.4171C178.494 30.4171 176.872 32.2021 176.872 34.1417C176.872 36.0813 178.494 37.8426 180.759 37.8426C182.633 37.8426 184.014 36.4795 184.327 35.2695H179.399V34.4828H185.389V34.4814V34.4814ZM197.172 29.7821H199.416C200.598 29.7821 201.181 29.9228 201.585 30.1094C202.061 30.3268 202.463 30.6767 202.743 31.1165C203.022 31.5564 203.168 32.0675 203.161 32.5878C203.161 33.8451 202.245 35.1261 200.538 35.2319L203.029 38.4734H201.921L198.925 34.5385C200.047 34.5385 200.43 34.526 200.823 34.409C201.788 34.1389 202.276 33.3383 202.276 32.5641C202.276 31.8832 201.882 31.1787 201.311 30.896C200.786 30.6259 200.334 30.5674 199.592 30.5674H198.054V38.4747H197.17V29.7821H197.172V29.7821ZM214.836 29.7821H219.669V30.5674H215.72V33.6933H219.537V34.4814H215.72V37.6881H219.669V38.4747H214.836V29.7821ZM231.656 29.7821H236.487V30.5674H232.54V33.6933H236.357V34.4814H232.54V37.6881H236.487V38.4747H231.656V29.7821ZM248.534 29.7821H249.727L254.654 36.9946H254.676V29.7821H255.56V38.4747H254.676L249.441 30.8264H249.418V38.4747H248.534V29.7821Z" fill="#255030"/>
<path fill-rule="evenodd" clip-rule="evenodd" d="M166.123 27.1177C168.026 27.1177 169.398 28.2914 170.049 30.0542L170.612 29.8133V23.918C169.364 23.2942 167.931 22.981 166.341 22.981C165.326 22.981 164.366 23.1007 163.474 23.3277C160.273 24.1422 157.934 26.356 156.973 29.5139C156.643 30.6182 156.48 31.765 156.489 32.9168C156.489 35.0722 157.039 36.9714 158.024 38.5072C158.561 39.3472 159.241 40.0886 160.032 40.6988C160.079 40.735 160.128 40.774 160.178 40.8102H170.612V31.7417H166.147V35.5108H170.001C169.807 37.6384 168.242 38.716 166.196 38.716C165.578 38.716 165.016 38.6005 164.511 38.3944C162.484 37.559 161.402 35.2351 161.402 32.9419C161.402 31.5844 161.778 30.1836 162.513 29.0948C163.305 27.9252 164.515 27.1177 166.123 27.1177V27.1177Z" fill="#97AE9A"/>
<path fill-rule="evenodd" clip-rule="evenodd" d="M158.025 38.5064C157.486 39.3794 156.71 39.8305 155.727 39.8305C153.763 39.8305 153.505 38.5871 153.505 35.872V28.7723C153.763 28.7389 154.019 28.7389 154.28 28.7389C155.363 28.7389 156.263 29.002 156.975 29.513C157.936 26.3538 160.274 24.1413 163.476 23.3268C163.369 21.5947 162.499 20.3304 160.887 19.5576H147.867V40.6993H160.034C159.242 40.0891 158.563 39.3471 158.025 38.5064V38.5064ZM153.505 20.038C153.763 20.006 154.019 20.006 154.246 20.006C156.597 20.006 157.786 21.3134 157.786 23.899C157.786 26.4512 156.5 27.5971 153.731 27.5971H153.504V20.038H153.505V20.038Z" fill="#1A3B73"/>
<path d="M147.867 19.5576H170.612V40.8093H147.867V19.5576Z" stroke="#1A3B73" stroke-width="4.57833" stroke-miterlimit="2.613"/>
<path fill-rule="evenodd" clip-rule="evenodd" d="M164.528 38.3732C165.289 37.3048 165.701 36.03 165.71 34.721C165.71 32.3234 164.602 30.3476 162.518 29.0903L162.515 29.0959C161.78 30.1847 161.404 31.5854 161.404 32.9416C161.404 35.1373 162.395 37.3609 164.258 38.2785L164.528 38.3732Z" fill="#1A3B73"/>
<path fill-rule="evenodd" clip-rule="evenodd" d="M165.56 33.8005C165.56 33.8005 165.287 34.7543 164.759 34.8323C164.673 34.1543 164.537 33.4836 164.351 32.8259C164.759 32.5474 165.026 32.2801 164.882 31.6688C164.882 31.6688 164.876 32.2536 164.253 32.4374C163.862 31.2191 163.349 30.1219 162.53 29.125C162.845 29.9507 163.143 30.6315 163.368 31.304C162.813 30.6455 161.748 31.0214 161.748 31.0214C162.414 30.9615 163.163 31.3556 163.532 31.9362C163.813 32.3817 163.868 32.7994 164.005 33.3717C162.977 32.2035 161.551 32.8788 161.551 32.8788C162.79 32.7577 163.991 33.433 164.215 34.4368C164.284 34.7432 164.415 35.4407 164.415 36.0422C163.471 34.4006 161.923 35.1748 161.923 35.1748C163.048 34.8309 164.41 36.0951 164.424 36.9904C164.427 37.0155 164.509 37.3093 164.197 38.2435C163.885 39.1778 162.484 39.3212 162.484 39.3212C162.642 39.4145 163.066 39.3769 163.064 39.732C163.064 39.888 163.119 40.0391 163.219 40.1594C164.018 40.172 164.527 38.4078 164.53 38.4009C164.801 37.7757 164.938 36.4196 164.855 35.2555C165.374 35.0077 165.669 34.3422 165.56 33.8005Z" fill="#1A3B73"/>
<path fill-rule="evenodd" clip-rule="evenodd" d="M165.56 33.8006C165.56 33.8006 165.287 34.7543 164.759 34.8323C164.673 34.1543 164.537 33.4837 164.351 32.8259C164.759 32.5474 165.026 32.2801 164.882 31.6689C164.882 31.6689 164.876 32.2536 164.253 32.4374C163.862 31.2191 163.349 30.1219 162.53 29.125C162.845 29.9507 163.143 30.6315 163.368 31.3041C162.813 30.6455 161.748 31.0214 161.748 31.0214C162.414 30.9615 163.163 31.3556 163.532 31.9362C163.813 32.3817 163.868 32.7994 164.005 33.3717C162.977 32.2035 161.551 32.8788 161.551 32.8788C162.79 32.7577 163.991 33.433 164.215 34.4369C164.284 34.7432 164.415 35.4408 164.415 36.0423C163.471 34.4007 161.923 35.1748 161.923 35.1748C163.048 34.8309 164.41 36.0952 164.424 36.9905C164.424 37.0072 164.443 37.6017 164.2 38.2533C164.449 38.3772 164.527 38.4023 164.53 38.4009C164.801 37.7758 164.938 36.4196 164.855 35.2556C165.374 35.0077 165.669 34.3422 165.56 33.8006V33.8006Z" fill="white"/>
</svg>
