<svg width="260" height="62" viewBox="0 0 260 62" fill="none" xmlns="http://www.w3.org/2000/svg">
<path d="M165.032 56.4652C164.687 56.3314 164.228 56.1819 163.653 56.0245L163.38 55.9615C163.062 55.8772 162.75 55.7667 162.447 55.631C162.242 55.5474 162.06 55.4095 161.915 55.2297C161.788 55.0534 161.725 54.8323 161.736 54.608C161.725 54.4069 161.761 54.206 161.838 54.0233C161.916 53.8407 162.034 53.682 162.181 53.5614C162.575 53.273 163.044 53.1347 163.517 53.168C163.861 53.1612 164.204 53.2225 164.529 53.349C164.883 53.5221 165.212 53.7501 165.506 54.0257C165.61 54.1255 165.741 54.1838 165.879 54.191C165.941 54.1895 166.002 54.1723 166.056 54.1409C166.111 54.1096 166.159 54.0647 166.195 54.01C166.27 53.9073 166.311 53.7795 166.31 53.648C166.306 53.4615 166.237 53.284 166.116 53.1522C165.795 52.7952 165.401 52.5257 164.967 52.3653C164.028 51.9747 162.991 51.9747 162.052 52.3653C161.64 52.5538 161.285 52.8645 161.025 53.2624C160.78 53.6563 160.652 54.1235 160.659 54.6002C160.639 55.0938 160.79 55.5775 161.082 55.9537C161.353 56.2792 161.69 56.5299 162.066 56.6855C162.535 56.8664 163.015 57.011 163.502 57.1183C163.848 57.1986 164.189 57.3037 164.522 57.4331C164.735 57.5105 164.929 57.6396 165.089 57.8108C165.154 57.8865 165.205 57.9756 165.238 58.0728C165.271 58.1701 165.287 58.2736 165.283 58.3774C165.293 58.5731 165.258 58.7684 165.181 58.9457C165.105 59.1229 164.989 59.2764 164.845 59.3925C164.44 59.672 163.965 59.8042 163.488 59.7702C162.687 59.786 161.908 59.4874 161.291 58.9282C161.189 58.83 161.06 58.7719 160.925 58.7629C160.862 58.7625 160.801 58.7788 160.746 58.8104C160.691 58.8419 160.644 58.8878 160.609 58.9439C160.53 59.0449 160.487 59.1732 160.486 59.3059C160.485 59.4008 160.502 59.4951 160.536 59.582C160.571 59.669 160.623 59.7467 160.688 59.8095C161.03 60.1728 161.446 60.4424 161.901 60.5965C162.41 60.7859 162.944 60.8816 163.481 60.8797C163.973 60.8825 164.46 60.781 164.917 60.5807C165.328 60.398 165.684 60.0926 165.944 59.6994C166.191 59.3179 166.321 58.8608 166.317 58.3931C166.336 57.9324 166.192 57.4815 165.915 57.134C165.673 56.8378 165.37 56.6086 165.032 56.4652V56.4652ZM174.216 52.1056C174.106 52.1105 173.999 52.1502 173.908 52.22C173.818 52.2898 173.748 52.3867 173.706 52.4991L171.092 58.0783L168.471 52.4991C168.431 52.3873 168.362 52.2907 168.273 52.2208C168.184 52.151 168.078 52.111 167.969 52.1056C167.894 52.1025 167.819 52.1171 167.75 52.1483C167.68 52.1795 167.618 52.2267 167.567 52.2866C167.517 52.343 167.478 52.4095 167.452 52.4825C167.426 52.5555 167.414 52.6333 167.416 52.7116V60.2502C167.409 60.4022 167.455 60.5513 167.545 60.6673C167.595 60.729 167.657 60.7773 167.727 60.8087C167.797 60.84 167.872 60.8536 167.947 60.8483C168.019 60.8517 168.091 60.8372 168.157 60.8058C168.223 60.7745 168.281 60.7271 168.328 60.6673C168.411 60.5475 168.454 60.4004 168.45 60.2502V54.7969L170.604 59.2272C170.648 59.3445 170.722 59.4449 170.818 59.5155C170.914 59.5861 171.027 59.6239 171.143 59.6239C171.258 59.6239 171.371 59.5861 171.467 59.5155C171.563 59.4449 171.638 59.3445 171.681 59.2272L173.785 54.7654V60.2738C173.781 60.424 173.825 60.5711 173.907 60.6909C173.956 60.7504 174.016 60.7975 174.083 60.8288C174.15 60.8601 174.222 60.8748 174.295 60.8719C174.368 60.8743 174.44 60.8593 174.507 60.8281C174.574 60.7968 174.634 60.75 174.683 60.6909C174.775 60.5757 174.823 60.4267 174.819 60.2738V52.7116C174.823 52.555 174.771 52.403 174.676 52.2866C174.618 52.2179 174.546 52.1654 174.466 52.1339C174.386 52.1024 174.3 52.0927 174.216 52.1056V52.1056ZM179.874 52.4991C179.829 52.3749 179.749 52.2701 179.645 52.2001C179.546 52.1308 179.431 52.0952 179.314 52.0978C179.198 52.093 179.084 52.1285 178.987 52.1991C178.89 52.2697 178.816 52.372 178.776 52.4912L175.695 60.0692C175.664 60.1432 175.65 60.224 175.652 60.3053C175.652 60.3805 175.665 60.4551 175.693 60.5241C175.72 60.5932 175.76 60.6554 175.81 60.7066C175.91 60.8003 176.038 60.8507 176.169 60.8483C176.273 60.8492 176.376 60.816 176.463 60.7529C176.55 60.6898 176.617 60.5997 176.657 60.4942L177.376 58.6134H181.203L181.921 60.4942C181.966 60.5987 182.035 60.6883 182.122 60.7538C182.205 60.8155 182.302 60.8485 182.402 60.8483C182.533 60.8492 182.661 60.799 182.761 60.7066C182.814 60.6586 182.856 60.5984 182.884 60.5303C182.913 60.4623 182.927 60.3881 182.926 60.3132C182.928 60.2336 182.911 60.1548 182.876 60.085L179.874 52.4991ZM180.801 57.5039H177.842L179.329 53.8211L180.801 57.5039ZM188.52 57.7006C188.389 57.4676 188.233 57.2535 188.053 57.0632C188.456 56.9657 188.826 56.7478 189.123 56.4337C189.53 55.9307 189.746 55.276 189.726 54.6042C189.706 53.9324 189.452 53.2945 189.016 52.8217C188.461 52.3585 187.772 52.1319 187.077 52.1843H184.449C184.302 52.1799 184.16 52.2393 184.054 52.3496C184.001 52.4028 183.96 52.4674 183.931 52.5392C183.903 52.611 183.888 52.6884 183.888 52.7667V60.266C183.885 60.3456 183.897 60.4251 183.923 60.4995C183.949 60.5739 183.988 60.6418 184.039 60.6988C184.145 60.8011 184.282 60.8576 184.423 60.8576C184.565 60.8576 184.701 60.8011 184.808 60.6988C184.86 60.6424 184.901 60.5749 184.928 60.5004C184.955 60.426 184.968 60.3461 184.966 60.266V57.2442H186.201C186.473 57.2302 186.744 57.2897 186.991 57.4173C187.218 57.5827 187.407 57.8036 187.543 58.0626L188.98 60.565C189.026 60.6539 189.092 60.7278 189.173 60.779C189.254 60.8302 189.346 60.8568 189.439 60.8561C189.566 60.8569 189.689 60.8065 189.784 60.7145C189.835 60.6674 189.877 60.6084 189.905 60.5418C189.934 60.4752 189.949 60.4025 189.949 60.3289C189.947 60.2126 189.911 60.1 189.848 60.0063L188.52 57.7006ZM188.649 54.6789C188.649 55.694 188.132 56.174 187.019 56.174H184.937V53.2388H187.019C187.461 53.198 187.903 53.3259 188.269 53.6008C188.404 53.7357 188.509 53.9034 188.575 54.0905C188.641 54.2777 188.667 54.4791 188.649 54.6789ZM195.988 52.1686H190.473C190.341 52.1631 190.213 52.2139 190.114 52.3102C190.065 52.362 190.027 52.4246 190.003 52.4938C189.978 52.563 189.967 52.6373 189.971 52.7116C189.967 52.7846 189.979 52.8575 190.003 52.9254C190.028 52.9932 190.066 53.0545 190.114 53.105C190.212 53.2035 190.34 53.2571 190.473 53.2545H192.706V60.2502C192.702 60.4031 192.751 60.5521 192.843 60.6673C192.892 60.7264 192.952 60.7732 193.019 60.8045C193.086 60.8357 193.158 60.8507 193.231 60.8483C193.302 60.845 193.372 60.8259 193.436 60.792C193.5 60.7582 193.557 60.7104 193.604 60.6515C193.698 60.5372 193.749 60.3883 193.748 60.2345V53.2545H195.966C196.099 53.254 196.226 53.2009 196.325 53.105C196.374 53.0546 196.413 52.9935 196.439 52.9258C196.465 52.858 196.478 52.7851 196.476 52.7116C196.479 52.6379 196.467 52.5645 196.441 52.4965C196.415 52.4285 196.375 52.3676 196.325 52.3181C196.235 52.2225 196.114 52.1689 195.988 52.1686V52.1686ZM203.822 56.4652C203.478 56.3314 203.018 56.1819 202.443 56.0245L202.171 55.9615C201.851 55.8807 201.539 55.7702 201.237 55.631C201.032 55.5474 200.85 55.4095 200.706 55.2297C200.579 55.0534 200.515 54.8323 200.526 54.608C200.516 54.4069 200.551 54.206 200.629 54.0233C200.706 53.8407 200.824 53.682 200.971 53.5614C201.365 53.273 201.834 53.1347 202.307 53.168C202.652 53.1612 202.995 53.2225 203.32 53.349C203.672 53.5239 204.001 53.7517 204.296 54.0257C204.4 54.1255 204.532 54.1838 204.669 54.191C204.73 54.1901 204.79 54.1732 204.844 54.1417C204.898 54.1102 204.944 54.065 204.978 54.01C205.058 53.9098 205.101 53.781 205.1 53.648C205.096 53.4615 205.027 53.284 204.906 53.1522C204.584 52.7967 204.191 52.5275 203.758 52.3653C202.818 51.9747 201.781 51.9747 200.842 52.3653C200.43 52.5538 200.075 52.8645 199.815 53.2624C199.57 53.6563 199.443 54.1235 199.449 54.6002C199.429 55.0938 199.58 55.5775 199.873 55.9537C200.143 56.2792 200.481 56.5299 200.857 56.6855C201.325 56.8664 201.805 57.011 202.293 57.1183C202.638 57.1997 202.979 57.3048 203.312 57.4331C203.525 57.5105 203.719 57.6396 203.88 57.8108C203.944 57.8865 203.995 57.9756 204.028 58.0728C204.062 58.1701 204.077 58.2736 204.073 58.3774C204.083 58.5731 204.048 58.7684 203.972 58.9457C203.895 59.1229 203.78 59.2764 203.635 59.3925C203.231 59.672 202.756 59.8042 202.278 59.7702C201.473 59.7898 200.688 59.4909 200.067 58.9282C199.963 58.8284 199.831 58.7702 199.693 58.7629C199.632 58.7638 199.572 58.7807 199.519 58.8122C199.465 58.8437 199.419 58.8889 199.384 58.9439C199.306 59.0449 199.263 59.1732 199.262 59.3059C199.259 59.4011 199.275 59.4958 199.31 59.583C199.345 59.6703 199.397 59.7477 199.463 59.8095C199.806 60.1728 200.222 60.4424 200.677 60.5965C201.186 60.7859 201.72 60.8816 202.257 60.8797C202.761 60.8877 203.261 60.786 203.729 60.5807C204.14 60.398 204.495 60.0926 204.756 59.6994C205.003 59.3179 205.133 58.8608 205.129 58.3931C205.148 57.9324 205.004 57.4815 204.727 57.134C204.479 56.8347 204.168 56.6052 203.822 56.4652V56.4652ZM211.304 52.6093C210.729 52.2585 210.082 52.0745 209.423 52.0745C208.765 52.0745 208.117 52.2585 207.542 52.6093C206.999 52.9888 206.572 53.5366 206.314 54.1831C206.034 54.9173 205.891 55.705 205.891 56.5006C205.891 57.2961 206.034 58.0838 206.314 58.818C206.572 59.4666 207.002 60.015 207.549 60.3919C208.123 60.7426 208.769 60.9267 209.427 60.9267C210.084 60.9267 210.73 60.7426 211.304 60.3919C211.851 60.0146 212.281 59.4663 212.54 58.818C212.819 58.0825 212.963 57.2935 212.963 56.4966C212.963 55.6998 212.819 54.9108 212.54 54.1752C212.279 53.5304 211.849 52.9852 211.304 52.6093ZM211.865 56.473C211.914 57.3547 211.683 58.228 211.211 58.9439C210.992 59.2316 210.714 59.4579 210.399 59.6043C210.084 59.7507 209.743 59.813 209.402 59.7859C209.064 59.8082 208.726 59.7429 208.415 59.5953C208.104 59.4476 207.83 59.2218 207.614 58.9361C207.191 58.198 206.967 57.3443 206.967 56.473C206.967 55.6017 207.191 54.7481 207.614 54.01C207.844 53.7423 208.123 53.5291 208.431 53.3833C208.74 53.2376 209.073 53.1624 209.409 53.1624C209.745 53.1624 210.077 53.2376 210.386 53.3833C210.695 53.5291 210.973 53.7423 211.204 54.01C211.68 54.721 211.914 55.5926 211.865 56.473V56.473ZM218.658 59.7072H215.254V52.7116C215.26 52.5522 215.208 52.3967 215.11 52.2788C215.06 52.2205 214.998 52.1748 214.93 52.1449C214.862 52.115 214.789 52.1016 214.715 52.1056C214.642 52.1037 214.568 52.1188 214.5 52.1499C214.432 52.1811 214.371 52.2277 214.32 52.2866C214.225 52.403 214.173 52.555 214.177 52.7116V60.2345C214.176 60.3124 214.191 60.3895 214.221 60.4603C214.251 60.531 214.295 60.5937 214.349 60.6437C214.454 60.7389 214.586 60.7916 214.723 60.7932H218.658C218.724 60.7962 218.789 60.7844 218.851 60.7587C218.913 60.733 218.969 60.6939 219.017 60.6437C219.065 60.5931 219.103 60.5319 219.127 60.464C219.152 60.3961 219.163 60.3232 219.16 60.2502C219.164 60.176 219.153 60.1017 219.128 60.0325C219.103 59.9632 219.065 59.9006 219.017 59.8489C218.918 59.7525 218.789 59.7017 218.658 59.7072V59.7072ZM225.199 52.1056C225.127 52.1038 225.054 52.119 224.987 52.1502C224.921 52.1814 224.861 52.2279 224.811 52.2866C224.762 52.343 224.723 52.4095 224.697 52.4825C224.671 52.5555 224.659 52.6333 224.661 52.7116V57.5039C224.685 57.8145 224.654 58.1275 224.567 58.4246C224.481 58.7217 224.342 58.9972 224.158 59.2351C223.952 59.4373 223.711 59.5917 223.45 59.6891C223.188 59.7864 222.911 59.8247 222.636 59.8017C221.25 59.8017 220.604 59.0698 220.604 57.5039V52.7116C220.607 52.6307 220.596 52.5499 220.57 52.474C220.544 52.3982 220.504 52.3291 220.453 52.2709C220.345 52.168 220.208 52.1112 220.065 52.1112C219.922 52.1112 219.785 52.168 219.677 52.2709C219.576 52.3905 219.522 52.5487 219.526 52.7116V57.4331C219.497 57.8997 219.552 58.3681 219.689 58.8112C219.826 59.2543 220.041 59.6632 220.323 60.0141C220.977 60.5902 221.79 60.9043 222.629 60.9043C223.467 60.9043 224.28 60.5902 224.934 60.0141C225.216 59.6632 225.431 59.2543 225.568 58.8112C225.705 58.3681 225.76 57.8997 225.731 57.4331V52.7116C225.737 52.5522 225.685 52.3967 225.587 52.2788C225.537 52.2211 225.477 52.1757 225.41 52.1459C225.343 52.116 225.271 52.1023 225.199 52.1056V52.1056ZM232.279 52.1686H226.765C226.63 52.1619 226.499 52.2127 226.398 52.3102C226.35 52.362 226.312 52.4246 226.287 52.4938C226.262 52.563 226.251 52.6373 226.255 52.7116C226.252 52.7846 226.263 52.8575 226.288 52.9254C226.312 52.9932 226.35 53.0545 226.398 53.105C226.447 53.1559 226.505 53.1953 226.567 53.221C226.63 53.2467 226.697 53.2581 226.765 53.2545H228.991V60.2502C228.988 60.4028 229.037 60.551 229.127 60.6673C229.178 60.7246 229.239 60.7702 229.306 60.8013C229.373 60.8325 229.445 60.8485 229.518 60.8485C229.591 60.8485 229.664 60.8325 229.731 60.8013C229.798 60.7702 229.859 60.7246 229.91 60.6673C229.958 60.612 229.996 60.5466 230.021 60.4749C230.045 60.4032 230.056 60.3268 230.053 60.2502V53.2545H232.279C232.41 53.2559 232.536 53.2024 232.631 53.105C232.68 53.0546 232.719 52.9935 232.745 52.9258C232.771 52.858 232.783 52.7851 232.782 52.7116C232.785 52.6379 232.773 52.5645 232.747 52.4965C232.721 52.4285 232.681 52.3676 232.631 52.3181C232.585 52.2685 232.53 52.2297 232.469 52.204C232.409 52.1783 232.344 52.1662 232.279 52.1686V52.1686ZM233.536 52.2866C233.486 52.343 233.448 52.4095 233.422 52.4825C233.396 52.5555 233.383 52.6333 233.385 52.7116V60.2502C233.384 60.3272 233.397 60.4037 233.422 60.4753C233.448 60.5469 233.487 60.6121 233.536 60.6673C233.585 60.7268 233.644 60.7739 233.711 60.8052C233.778 60.8365 233.851 60.8512 233.924 60.8483C233.998 60.8503 234.071 60.8352 234.139 60.804C234.207 60.7728 234.268 60.7262 234.319 60.6673C234.413 60.5529 234.464 60.404 234.462 60.2502V52.7116C234.466 52.555 234.414 52.403 234.319 52.2866C234.267 52.2302 234.206 52.1855 234.139 52.155C234.072 52.1245 234 52.1087 233.927 52.1087C233.855 52.1087 233.783 52.1245 233.716 52.155C233.648 52.1855 233.587 52.2302 233.536 52.2866V52.2866ZM241.09 52.6093C240.515 52.2585 239.867 52.0745 239.209 52.0745C238.55 52.0745 237.903 52.2585 237.327 52.6093C236.785 52.9888 236.357 53.5366 236.1 54.1831C235.544 55.6682 235.544 57.3329 236.1 58.818C236.358 59.4666 236.788 60.015 237.335 60.3919C237.909 60.7426 238.555 60.9267 239.212 60.9267C239.87 60.9267 240.516 60.7426 241.09 60.3919C241.637 60.015 242.067 59.4666 242.325 58.818C242.605 58.0825 242.749 57.2935 242.749 56.4966C242.749 55.6998 242.605 54.9108 242.325 54.1752C242.067 53.5288 241.636 52.9829 241.09 52.6093V52.6093ZM241.65 56.473C241.7 57.3547 241.469 58.228 240.997 58.9439C240.78 59.2282 240.505 59.4525 240.195 59.5988C239.884 59.7451 239.546 59.8092 239.209 59.7859C238.868 59.8108 238.528 59.7467 238.214 59.5989C237.901 59.4512 237.624 59.224 237.406 58.9361C236.984 58.198 236.76 57.3443 236.76 56.473C236.76 55.6017 236.984 54.7481 237.406 54.01C237.637 53.7423 237.916 53.5291 238.224 53.3833C238.533 53.2376 238.866 53.1624 239.202 53.1624C239.538 53.1624 239.87 53.2376 240.179 53.3833C240.488 53.5291 240.766 53.7423 240.997 54.01C241.471 54.722 241.702 55.5935 241.65 56.473V56.473ZM249.707 52.1056C249.636 52.104 249.566 52.1193 249.502 52.1506C249.437 52.1819 249.38 52.2283 249.334 52.2866C249.238 52.403 249.187 52.555 249.19 52.7116V58.6449L244.961 52.3496C244.914 52.2653 244.849 52.1956 244.771 52.1474C244.693 52.0991 244.605 52.0738 244.515 52.0742C244.44 52.0694 244.365 52.0832 244.296 52.1146C244.226 52.1459 244.164 52.1939 244.113 52.2552C244.064 52.3115 244.025 52.3781 243.999 52.451C243.973 52.524 243.961 52.6018 243.962 52.6801V60.2187C243.959 60.3689 244.002 60.516 244.084 60.6358C244.135 60.6929 244.195 60.7384 244.262 60.7694C244.328 60.8004 244.4 60.8164 244.472 60.8164C244.545 60.8164 244.616 60.8004 244.683 60.7694C244.75 60.7384 244.81 60.6929 244.86 60.6358C244.951 60.5202 245 60.3715 244.996 60.2187V54.3011L249.247 60.5965C249.3 60.6746 249.368 60.7386 249.446 60.7836C249.525 60.8286 249.611 60.8534 249.7 60.8561C249.773 60.8585 249.845 60.8436 249.912 60.8123C249.979 60.7811 250.039 60.7343 250.088 60.6751C250.181 60.5608 250.233 60.4119 250.231 60.2581V52.7116C250.234 52.5565 250.186 52.4054 250.095 52.2866C250.047 52.2262 249.987 52.1785 249.92 52.1471C249.853 52.1158 249.78 52.1016 249.707 52.1056V52.1056ZM256.708 57.134C256.455 56.8308 256.136 56.601 255.782 56.4652C255.444 56.3314 254.985 56.1819 254.41 56.0245L254.138 55.9301C253.816 55.8492 253.501 55.7386 253.197 55.5995C252.995 55.5137 252.816 55.3761 252.673 55.1982C252.543 55.0231 252.477 54.8018 252.486 54.5766C252.477 54.3757 252.513 54.1755 252.591 53.9932C252.669 53.8109 252.785 53.6519 252.931 53.53C253.329 53.2441 253.799 53.1061 254.274 53.1365C254.616 53.1291 254.957 53.1905 255.279 53.3175C255.635 53.4903 255.966 53.7182 256.263 53.9942C256.365 54.0924 256.494 54.1505 256.629 54.1595C256.691 54.1586 256.752 54.1417 256.807 54.1103C256.862 54.0788 256.909 54.0337 256.945 53.9785C257.025 53.8783 257.068 53.7495 257.067 53.6165C257.066 53.5234 257.047 53.4316 257.012 53.3464C256.978 53.2613 256.928 53.1846 256.866 53.1208C256.548 52.7629 256.157 52.4931 255.724 52.3338C254.785 51.9432 253.748 51.9432 252.809 52.3338C252.387 52.5327 252.025 52.8605 251.768 53.2781C251.523 53.6721 251.395 54.1393 251.402 54.6159C251.378 55.1102 251.53 55.5953 251.825 55.9694C252.094 56.2975 252.432 56.5487 252.809 56.7012C253.278 56.8821 253.758 57.0267 254.245 57.134C254.591 57.2154 254.931 57.3205 255.265 57.4488C255.477 57.5281 255.67 57.657 255.832 57.8265C255.897 57.9023 255.948 57.9913 255.981 58.0886C256.014 58.1858 256.029 58.2893 256.026 58.3931C256.036 58.5889 256.001 58.7842 255.924 58.9614C255.848 59.1386 255.732 59.2922 255.588 59.4082C255.181 59.6879 254.703 59.82 254.224 59.7859C253.436 59.7875 252.673 59.4837 252.069 58.9282C251.966 58.8284 251.834 58.7702 251.696 58.7629C251.634 58.7639 251.573 58.7807 251.518 58.8122C251.464 58.8436 251.416 58.8887 251.38 58.9439C251.307 59.0475 251.266 59.1747 251.265 59.3059C251.262 59.4002 251.278 59.4941 251.312 59.581C251.345 59.668 251.396 59.7459 251.459 59.8095C251.805 60.1713 252.223 60.4406 252.68 60.5965C253.186 60.7853 253.718 60.8811 254.252 60.8797C254.756 60.8883 255.257 60.7866 255.724 60.5807C256.137 60.3981 256.495 60.0929 256.759 59.6994C257.003 59.3172 257.132 58.86 257.125 58.3931C257.14 57.9301 256.991 57.4786 256.708 57.134V57.134ZM87.2718 15.1049H86.5537V30.9376C86.5537 33.7217 85.5445 36.3918 83.7481 38.3604C81.9517 40.3291 79.5152 41.4351 76.9747 41.4351C74.4341 41.4351 71.9976 40.3291 70.2012 38.3604C68.4048 36.3918 67.3956 33.7217 67.3956 30.9376V15.1049H62.527V30.9376C62.4841 33.046 62.826 35.1425 63.5326 37.1041C64.2392 39.0657 65.2963 40.8528 66.6418 42.3605C67.9873 43.8683 69.5941 45.0662 71.3679 45.8841C73.1417 46.702 75.0467 47.1233 76.9711 47.1233C78.8955 47.1233 80.8005 46.702 82.5742 45.8841C84.348 45.0662 85.9548 43.8683 87.3003 42.3605C88.6458 40.8528 89.7029 39.0657 90.4095 37.1041C91.1161 35.1425 91.458 33.046 91.4151 30.9376V15.1049H87.2718ZM208.719 15.1049C204.889 15.1091 201.216 16.7785 198.508 19.7468C195.799 22.7151 194.276 26.7398 194.272 30.9376V46.7704H199.14V30.9376C199.14 28.1535 200.15 25.4835 201.946 23.5148C203.742 21.5462 206.179 20.4402 208.719 20.4402C211.26 20.4402 213.696 21.5462 215.493 23.5148C217.289 25.4835 218.299 28.1535 218.299 30.9376V46.7704H223.16V30.9376C223.158 26.7405 221.636 22.7158 218.929 19.7473C216.221 16.7787 212.549 15.1091 208.719 15.1049V15.1049ZM110.731 15.1049C106.901 15.1091 103.228 16.7785 100.519 19.7468C97.8108 22.7151 96.2874 26.7398 96.2836 30.9376V46.7704H101.152V30.9376C101.156 28.1548 102.166 25.4872 103.962 23.5194C105.758 21.5517 108.192 20.4443 110.731 20.4402H121.746V15.1049H110.731ZM141.127 15.1049C137.598 15.1075 134.191 16.5236 131.548 19.0867V0.059082H126.687V46.7704H131.548V42.7807C133.298 44.4825 135.4 45.693 137.671 46.3081C139.943 46.9232 142.317 46.9245 144.589 46.3118C146.861 45.6991 148.963 44.4909 150.715 42.7909C152.467 41.091 153.816 38.9502 154.645 36.5526C155.475 34.1551 155.761 31.5726 155.479 29.0271C155.197 26.4817 154.354 24.0494 153.024 21.9396C151.695 19.8297 149.917 18.1054 147.845 16.9149C145.772 15.7243 143.467 15.1032 141.127 15.1049ZM150.706 30.9376C150.706 33.0138 150.145 35.0434 149.092 36.7697C148.039 38.496 146.543 39.8415 144.793 40.636C143.043 41.4305 141.117 41.6384 139.258 41.2334C137.4 40.8283 135.693 39.8285 134.354 38.3604C133.014 36.8924 132.102 35.0219 131.732 32.9856C131.363 30.9493 131.552 28.8386 132.277 26.9204C133.002 25.0023 134.23 23.3628 135.805 22.2093C137.381 21.0558 139.233 20.4402 141.127 20.4402C143.667 20.4443 146.101 21.5517 147.896 23.5194C149.692 25.4872 150.703 28.1548 150.706 30.9376ZM174.934 15.1049C172.594 15.1032 170.289 15.7243 168.217 16.9149C166.144 18.1054 164.367 19.8297 163.037 21.9396C161.707 24.0494 160.865 26.4817 160.582 29.0271C160.3 31.5726 160.586 34.1551 161.416 36.5526C162.246 38.9502 163.595 41.091 165.346 42.7909C167.098 44.4909 169.2 45.6991 171.473 46.3118C173.745 46.9245 176.119 46.9232 178.39 46.3081C180.662 45.693 182.763 44.4825 184.513 42.7807V46.7704H189.382V30.9376C189.378 26.7398 187.855 22.7151 185.146 19.7468C182.437 16.7785 178.765 15.1091 174.934 15.1049V15.1049ZM184.513 30.9376C184.513 33.0138 183.951 35.0434 182.899 36.7697C181.846 38.496 180.35 39.8415 178.6 40.636C176.85 41.4305 174.923 41.6384 173.065 41.2334C171.207 40.8283 169.5 39.8285 168.161 38.3604C166.821 36.8924 165.909 35.0219 165.539 32.9856C165.169 30.9493 165.359 28.8386 166.084 26.9204C166.809 25.0023 168.037 23.3628 169.612 22.2093C171.188 21.0558 173.04 20.4402 174.934 20.4402C177.473 20.4443 179.908 21.5517 181.703 23.5194C183.499 25.4872 184.509 28.1548 184.513 30.9376V30.9376ZM242.483 15.1049C240.143 15.1032 237.838 15.7243 235.766 16.9149C233.693 18.1054 231.916 19.8297 230.586 21.9396C229.256 24.0494 228.414 26.4817 228.132 29.0271C227.849 31.5726 228.135 34.1551 228.965 36.5526C229.795 38.9502 231.144 41.091 232.895 42.7909C234.647 44.4909 236.75 45.6991 239.022 46.3118C241.294 46.9245 243.668 46.9232 245.939 46.3081C248.211 45.693 250.312 44.4825 252.062 42.7807V46.7704H256.924V30.9376C256.922 26.7405 255.4 22.7158 252.692 19.7473C249.985 16.7787 246.313 15.1091 242.483 15.1049V15.1049ZM252.062 30.9376C252.062 33.0138 251.5 35.0434 250.448 36.7697C249.395 38.496 247.899 39.8415 246.149 40.636C244.399 41.4305 242.473 41.6384 240.614 41.2334C238.756 40.8283 237.049 39.8285 235.71 38.3604C234.37 36.8924 233.458 35.0219 233.088 32.9856C232.719 30.9493 232.908 28.8386 233.633 26.9204C234.358 25.0023 235.586 23.3628 237.161 22.2093C238.737 21.0558 240.589 20.4402 242.483 20.4402C245.023 20.4443 247.457 21.5517 249.252 23.5194C251.048 25.4872 252.059 28.1548 252.062 30.9376V30.9376Z" fill="#3C3C3B"/>
<path d="M41.9545 39.4048C41.854 39.2396 41.7678 39.0743 41.6817 38.9091C40.4389 36.4744 39.7864 33.7313 39.7864 30.9416C39.7864 28.1519 40.4389 25.4087 41.6817 22.9741C41.7678 22.8088 41.854 22.6357 41.9545 22.4783C42.5758 21.1892 42.9404 19.7704 43.0245 18.3155C43.0245 18.0794 43.0604 17.8355 43.0604 17.5916C43.0599 15.7491 42.6123 13.9398 41.7633 12.3495C40.9144 10.7591 39.6947 9.4448 38.2294 8.54137C36.764 7.63795 35.1058 7.17792 33.4247 7.20846C31.7436 7.239 30.1002 7.759 28.663 8.71515C26.4343 10.0926 23.9189 10.8163 21.3602 10.8162C18.913 10.8195 16.5031 10.1599 14.3446 8.89614C14.0646 8.73089 13.7917 8.5499 13.5332 8.36104C12.1975 7.6198 10.722 7.23171 9.22478 7.22788C6.75513 7.30236 4.40944 8.42982 2.68667 10.3704C0.963902 12.311 0 14.9117 0 17.6191C0 20.3265 0.963902 22.9272 2.68667 24.8678C4.40944 26.8084 6.75513 27.9358 9.22478 28.0103C10.5391 28.0066 11.8389 27.7094 13.0449 27.1368H13.0808C13.6897 26.8353 14.2674 26.4633 14.8042 26.0273C16.4228 25.1609 18.1728 24.6275 19.9672 24.4535C20.4339 24.4062 20.9078 24.3826 21.4033 24.3826C23.1422 24.3807 24.8679 24.7136 26.5016 25.3663C27.2408 27.5778 27.5362 29.938 27.3676 32.2859C27.1991 34.6338 26.5706 36.9144 25.525 38.972L25.2665 39.4678C24.6342 40.7306 24.2501 42.1245 24.1392 43.5598C24.1392 43.7958 24.1032 44.0398 24.1032 44.2916C24.105 46.3575 24.668 48.3761 25.7204 50.09C26.7729 51.804 28.2673 53.1358 30.013 53.9156C31.1511 54.4334 32.371 54.7008 33.6034 54.7025C36.1166 54.7004 38.5264 53.6054 40.3036 51.6578C42.0808 49.7103 43.08 47.0694 43.0819 44.3152C43.0819 44.0634 43.0819 43.8194 43.046 43.5834C42.9573 42.1213 42.5852 40.6968 41.9545 39.4048V39.4048Z" fill="url(#paint0_linear_1_1518)"/>
<path d="M25.4676 22.9663L25.2091 22.4706C24.5881 21.1814 24.2234 19.7626 24.1392 18.3078C24.1392 18.0717 24.1033 17.8278 24.1033 17.5838C24.1035 15.8007 24.5233 14.0478 25.322 12.4944C26.1207 10.9409 27.2714 9.63931 28.663 8.7153C26.4343 10.0928 23.9189 10.8165 21.3602 10.8164C18.913 10.8196 16.5031 10.16 14.3446 8.89629C14.0646 8.73104 13.7917 8.55005 13.5332 8.36119C12.1975 7.61995 10.722 7.23186 9.22478 7.22803C6.75513 7.30251 4.40944 8.42997 2.68667 10.3706C0.963902 12.3112 0 14.9118 0 17.6192C0 20.3267 0.963902 22.9273 2.68667 24.8679C4.40944 26.8085 6.75513 27.936 9.22478 28.0105C10.5391 28.0068 11.8389 27.7095 13.0449 27.137H13.0808C13.6897 26.8354 14.2674 26.4635 14.8042 26.0274C16.4228 25.1611 18.1728 24.6276 19.9672 24.4536C20.4339 24.4064 20.9078 24.3828 21.4033 24.3828C23.1422 24.3808 24.8679 24.7138 26.5016 25.3664C26.2215 24.5348 25.8755 23.7317 25.4676 22.9663V22.9663Z" fill="url(#paint1_linear_1_1518)"/>
<path d="M25.4676 22.9663L25.2091 22.4706C24.5881 21.1814 24.2234 19.7626 24.1392 18.3078C24.1392 18.0717 24.1033 17.8278 24.1033 17.5838C24.1035 15.8007 24.5233 14.0478 25.322 12.4944C26.1207 10.9409 27.2714 9.63931 28.663 8.7153C26.4343 10.0928 23.9189 10.8165 21.3602 10.8164C18.913 10.8196 16.5031 10.16 14.3446 8.89629C14.0646 8.73104 13.7917 8.55005 13.5332 8.36119C12.1975 7.61995 10.722 7.23186 9.22478 7.22803C6.75513 7.30251 4.40944 8.42997 2.68667 10.3706C0.963902 12.3112 0 14.9118 0 17.6192C0 20.3267 0.963902 22.9273 2.68667 24.8679C4.40944 26.8085 6.75513 27.936 9.22478 28.0105C10.5391 28.0068 11.8389 27.7095 13.0449 27.137H13.0808C13.6897 26.8354 14.2674 26.4635 14.8042 26.0274C16.4228 25.1611 18.1728 24.6276 19.9672 24.4536C20.4339 24.4064 20.9078 24.3828 21.4033 24.3828C23.1422 24.3808 24.8679 24.7138 26.5016 25.3664C26.2215 24.5348 25.8755 23.7317 25.4676 22.9663V22.9663Z" fill="url(#paint2_linear_1_1518)"/>
<defs>
<linearGradient id="paint0_linear_1_1518" x1="-5.37364" y1="-11.7525" x2="68.9066" y2="56.0294" gradientUnits="userSpaceOnUse">
<stop stop-color="#8DBF28"/>
<stop offset="1" stop-color="#3CB0E6"/>
</linearGradient>
<linearGradient id="paint1_linear_1_1518" x1="-0.275324" y1="17.5838" x2="28.663" y2="17.5838" gradientUnits="userSpaceOnUse">
<stop stop-color="#006633" stop-opacity="0"/>
<stop offset="1" stop-color="#006633" stop-opacity="0.5"/>
</linearGradient>
<linearGradient id="paint2_linear_1_1518" x1="-0.275324" y1="17.5838" x2="28.663" y2="17.5838" gradientUnits="userSpaceOnUse">
<stop stop-color="#006633" stop-opacity="0"/>
<stop offset="1" stop-color="#006633" stop-opacity="0.5"/>
</linearGradient>
</defs>
</svg>
