<svg width="260" height="62" viewBox="0 0 260 62" fill="none" xmlns="http://www.w3.org/2000/svg">
<path fill-rule="evenodd" clip-rule="evenodd" d="M19.3993 19.4323L19.8161 21.3261H22.8416L20.4419 10.3909H17.3126L11.4707 21.3261H14.391L15.5402 19.4323H19.3993V19.4323ZM18.9798 17.2243H16.5815L18.3553 13.7536L18.9798 17.2243V17.2243ZM33.2736 10.6C32.4387 10.2844 31.6037 10.074 30.7701 10.074C29.2055 10.074 27.5369 10.7052 26.2838 11.8612C25.0321 12.9133 24.3024 14.3849 23.9894 15.8579C23.7804 17.5399 24.0933 18.9076 25.136 20.0636C26.0761 21.1157 27.4317 21.6404 28.9964 21.6404C29.8313 21.6404 30.5611 21.4313 31.6037 21.1157L32.1257 17.7503C31.3946 18.4868 30.4572 18.9076 29.5184 18.9076C27.7446 18.9076 26.702 17.6451 27.0136 15.8579C27.2226 14.1745 28.6834 12.8081 30.3533 12.8081C31.396 12.8081 32.2309 13.2289 32.6491 14.0693L33.2736 10.6ZM42.7668 10.6C41.9775 10.2542 41.1252 10.0751 40.2634 10.074C38.6987 10.074 37.134 10.7052 35.8823 11.8612C34.6305 12.9133 33.7956 14.3849 33.5865 15.8579C33.3775 17.5399 33.6904 18.9076 34.7344 20.0636C35.6732 21.1157 37.0288 21.6404 38.5935 21.6404C39.4284 21.6404 40.1595 21.4313 41.0983 21.1157L41.7242 17.7503C40.9931 18.4868 39.9504 18.9076 39.0116 18.9076C37.2379 18.9076 36.2991 17.6451 36.5082 15.8579C36.8197 14.1745 38.1767 12.8081 39.9504 12.8081C40.8892 12.8081 41.828 13.2289 42.2448 14.0693L42.7668 10.6V10.6ZM50.1734 9.96875C46.9402 9.96875 43.7056 12.3873 43.1836 15.6474C42.663 19.2233 44.7483 21.7456 48.2958 21.7456C51.8433 21.7456 54.7636 19.2233 55.2856 15.6474C55.8062 12.3873 53.3027 9.96875 50.1734 9.96875ZM49.6528 12.8081C51.4251 12.8081 52.573 14.1745 52.3639 15.6461C52.0524 17.5385 50.3825 19.0115 48.7126 19.0115C47.0441 19.0115 45.8962 17.5385 46.1053 15.6461C46.4182 14.1745 47.9829 12.8081 49.6528 12.8081ZM55.0765 21.3261H57.8929L59.7705 15.0162L61.3365 21.3261H62.4831L66.0305 15.0162H66.1344L65.9267 21.3261H68.7431L68.847 10.3896H66.0305L62.6921 16.2787L61.4404 10.3896H58.624L55.0765 21.3261ZM69.2651 21.3261H72.0802L74.063 15.0162L75.5238 21.3261H76.6717L80.323 15.0162L80.1139 21.3261H83.0356V10.3896H80.2178L76.9846 16.2787L75.6277 10.3896H72.9151L69.2651 21.3261V21.3261ZM91.4848 9.96875C88.3555 9.96875 85.017 12.3873 84.495 15.6474C83.973 19.2233 86.1649 21.7456 89.6072 21.7456C93.1533 21.7456 96.075 19.2233 96.597 15.6474C97.1176 12.3873 94.6141 9.96875 91.4848 9.96875ZM91.068 12.8081C92.7365 12.8081 93.8844 14.1745 93.6753 15.6461C93.3624 17.5385 91.7977 19.0115 90.024 19.0115C88.3555 19.0115 87.2076 17.5385 87.5205 15.6461C87.7296 14.1745 89.2943 12.8081 91.068 12.8081V12.8081ZM97.0138 21.3261H101.082C104.107 21.3261 107.029 19.0128 107.446 15.8579C107.968 12.8081 105.881 10.3896 102.752 10.3896H98.7875L97.0138 21.3261ZM101.187 12.8081H101.917C103.691 12.8081 104.838 13.8589 104.526 15.8579C104.213 18.0659 102.543 18.9076 100.874 18.9076H100.248L101.187 12.8081V12.8081ZM114.958 19.4323L115.374 21.3261H118.4L116 10.3909H112.871L106.925 21.3261H109.949L110.993 19.4323H114.958ZM114.539 17.2243H112.141L113.914 13.7536L114.539 17.2243ZM124.033 12.8081H126.432L126.849 10.3896H119.235L118.922 12.8081H121.216L119.859 21.3261H122.78L124.033 12.8081ZM130.708 10.3896H127.789L126.118 21.3261H128.936L130.708 10.3896V10.3896ZM138.116 9.96875C134.988 9.96875 131.648 12.3873 131.128 15.6474C130.606 19.2233 132.692 21.7456 136.238 21.7456C139.786 21.7456 142.706 19.2233 143.228 15.6474C143.749 12.3873 141.247 9.96875 138.116 9.96875ZM137.595 12.8081C139.368 12.8081 140.516 14.1745 140.308 15.6461C139.996 17.5385 138.325 19.0115 136.657 19.0115C134.988 19.0115 133.839 17.5385 134.153 15.6461C134.36 14.1745 135.926 12.8081 137.595 12.8081V12.8081ZM143.646 21.3261H146.463L147.504 14.5953H147.609L151.679 21.3261H154.598L156.269 10.3896H153.453L152.409 17.119L148.235 10.3896H145.419L143.646 21.3261V21.3261ZM167.118 18.592C166.597 18.9076 166.076 19.1181 165.553 19.1181C164.927 19.1181 164.405 18.6972 164.512 18.0659C164.616 17.4347 165.242 17.0138 165.658 16.8034L167.118 18.592V18.592ZM167.223 14.3849C167.014 13.9641 166.492 13.4394 166.597 12.9133C166.701 12.3873 167.223 11.9664 167.638 11.9664C168.266 11.9664 168.577 12.4925 168.473 13.0185C168.368 13.6484 167.742 14.0693 167.223 14.3849V14.3849ZM169.203 21.3261H172.752L170.664 18.8024L170.872 18.592L172.438 17.119L171.081 15.6474C170.56 16.1735 170.038 16.6982 169.412 17.119L168.264 15.7526C169.516 15.1214 170.454 14.4901 170.766 13.0185C170.976 11.2299 169.515 10.074 167.741 10.074C165.97 10.074 164.195 11.2299 163.883 13.1237C163.778 13.9641 164.09 14.4901 164.404 15.0162L164.613 15.3318L164.3 15.437C162.839 16.0683 161.691 16.8034 161.484 18.4868C161.171 20.4844 162.632 21.6404 164.509 21.6404C165.761 21.6404 167.222 21.1157 168.367 20.3792L169.203 21.3261V21.3261ZM73.1242 37.3115H73.4371C74.2721 37.3115 75.7329 37.101 75.5238 38.4674C75.3147 39.73 73.9591 39.6234 73.1242 39.6234H72.706L73.1242 37.3115ZM73.9591 41.8315C75.9406 41.8315 78.0273 41.0937 78.3402 38.7804C78.5493 37.2049 78.1311 36.1514 76.5665 35.941C77.5053 35.5215 77.9234 34.6812 78.1311 33.6277C78.4454 31.5248 77.2975 30.7897 75.3147 30.7897H71.2466L69.5767 41.8315H73.9591V41.8315ZM73.75 32.9978H73.9591C74.6902 32.9978 75.6277 33.103 75.4199 34.0486C75.3147 34.9968 74.4811 35.102 73.75 35.102H73.4371L73.75 32.9978ZM87.7296 30.7911L86.7908 36.5736C86.5817 38.0466 86.2688 39.6247 84.3912 39.6247C82.6188 39.6247 82.7226 38.0466 82.9304 36.5736L83.8692 30.7911H81.0527L80.0101 36.9958C79.801 38.4688 79.6972 39.8352 80.636 40.8873C81.3657 41.8328 82.7213 42.1498 83.973 42.1498C85.33 42.1498 86.7908 41.8342 87.8334 40.8873C89.0852 39.8365 89.3981 38.4688 89.6072 36.9958L90.546 30.7911H87.7296ZM95.24 30.7911H92.3184L90.6499 41.8315H93.4676L95.24 30.7911ZM99.9354 30.7911H97.0138L95.3452 41.8315H101.604L101.917 39.413H98.5784L99.9354 30.7911V30.7911ZM102.439 41.8315H106.507C109.532 41.8315 112.454 39.413 112.975 36.3619C113.393 33.2082 111.306 30.7897 108.281 30.7897H104.213L102.439 41.8315V41.8315ZM106.716 33.2096H107.342C109.22 33.2096 110.264 34.3655 109.949 36.3632C109.636 38.4688 108.072 39.4143 106.298 39.4143H105.672L106.716 33.2096V33.2096ZM117.983 30.7911H115.165L113.393 41.8315H116.209L117.983 30.7911ZM118.087 41.8315H120.903L121.947 35.1034H122.051L126.118 41.8315H129.041L130.708 30.7911H127.892L126.849 37.5219H126.745L122.677 30.7911H119.859L118.087 41.8315V41.8315ZM137.073 35.6281L136.76 37.9414H139.056C138.745 39.2039 137.699 39.8352 136.448 39.8352C134.569 39.8352 133.838 38.1518 134.152 36.3632C134.36 34.6825 135.613 32.8939 137.49 32.8939C138.639 32.8939 139.369 33.6291 139.577 34.6825L142.499 33.5266C141.873 31.421 140.203 30.4754 138.012 30.4754C134.466 30.4754 131.754 32.7887 131.128 36.3646C130.606 39.8365 132.587 42.1498 136.031 42.1498C137.91 42.1498 139.577 41.5172 140.934 40.0442C142.082 38.6765 142.393 37.3128 142.706 35.6294H137.073V35.6281ZM156.79 31.4196C155.851 30.8936 154.598 30.4727 153.451 30.4727C151.259 30.4727 149.487 31.9457 149.174 34.259C148.861 36.3619 149.904 36.7827 151.572 37.3101C152.199 37.5205 153.241 37.7296 153.137 38.5699C153.033 39.3078 152.303 39.7286 151.572 39.7286C150.633 39.7286 149.904 39.2012 149.278 38.5699L147.713 40.8859C148.754 41.7047 150.04 42.1494 151.365 42.1485C152.407 42.1485 153.659 41.8328 154.596 41.095C155.535 40.3599 155.955 39.2039 156.161 38.1518C156.474 36.3632 155.431 35.5229 153.971 35.1034L153.241 34.8929C152.824 34.6825 152.093 34.4721 152.199 33.8395C152.303 33.2096 153.033 32.8939 153.555 32.8939C154.181 32.8939 154.807 33.2096 155.329 33.6291L156.79 31.4196V31.4196ZM160.545 36.5736L159.814 41.8315H162.632L163.465 36.5736L168.368 30.7911H164.926L162.422 33.8381L160.859 30.7911H157.417L160.545 36.5736V36.5736ZM176.089 31.4196C175.152 30.8936 173.899 30.4727 172.752 30.4727C170.561 30.4727 168.788 31.9457 168.473 34.259C168.055 36.3619 169.203 36.7827 170.872 37.3101C171.498 37.5205 172.542 37.7296 172.438 38.5699C172.332 39.3078 171.498 39.7286 170.872 39.7286C169.933 39.7286 169.101 39.2012 168.473 38.5699L166.907 40.8859C167.951 41.6211 169.203 42.1485 170.561 42.1485C171.708 42.1485 172.854 41.8328 173.899 41.095C174.837 40.3599 175.255 39.2039 175.463 38.1518C175.776 36.3632 174.63 35.5229 173.273 35.1034L172.543 34.8929C172.021 34.6825 171.29 34.4721 171.394 33.8395C171.498 33.2096 172.229 32.8939 172.752 32.8939C173.48 32.8939 174.108 33.2096 174.523 33.6291L176.089 31.4196V31.4196ZM181.932 33.2096H184.225L184.643 30.7911H177.133L176.716 33.2096H179.115L177.759 41.8315H180.575L181.932 33.2096V33.2096ZM191.529 33.2096L191.842 30.7911H185.687L183.914 41.8315H190.172L190.485 39.413H187.148L187.461 37.5219H190.694L191.006 35.1034H187.878L188.086 33.2096H191.529V33.2096ZM191.216 41.8315H194.033L196.014 35.5215L197.474 41.8315H198.623L202.274 35.5215L202.065 41.8315H204.987V30.7911H202.171L198.935 36.6788L197.579 30.7911H194.868L191.216 41.8315ZM214.896 31.4196C214.061 30.8936 212.705 30.4727 211.664 30.4727C209.472 30.4727 207.593 31.9457 207.281 34.259C206.968 36.3619 208.012 36.7827 209.785 37.3101C210.307 37.5205 211.349 37.7296 211.244 38.5699C211.142 39.3078 210.412 39.7286 209.68 39.7286C208.742 39.7286 208.012 39.2012 207.387 38.5699L205.822 40.8859C206.871 41.6888 208.151 42.1316 209.472 42.1485C210.515 42.1485 211.768 41.8328 212.705 41.095C213.644 40.3599 214.166 39.2039 214.27 38.1518C214.583 36.3632 213.54 35.5229 212.079 35.1034L211.349 34.8929C210.931 34.6825 210.202 34.4721 210.307 33.8395C210.412 33.2096 211.142 32.8939 211.664 32.8939C212.393 32.8939 213.019 33.2096 213.435 33.6291L214.896 31.4196V31.4196ZM224.599 30.7911H221.783L220.008 41.8315H226.268L226.686 39.413H223.242L224.599 30.7911ZM232.111 33.2096H234.508L234.822 30.7911H227.31L226.895 33.2096H229.293L227.936 41.8315H230.754L232.111 33.2096ZM234.196 41.8315H238.159C241.185 41.8315 244.106 39.413 244.627 36.3619C245.047 33.2082 242.959 30.7897 239.934 30.7897H235.866L234.196 41.8315V41.8315ZM238.37 33.2096H238.996C240.873 33.2096 241.917 34.3655 241.604 36.3632C241.293 38.4688 239.725 39.4143 238.057 39.4143H237.327L238.37 33.2096ZM247.133 38.6751C246.193 38.6751 245.256 39.413 245.15 40.3585C244.941 41.3041 245.672 42.1471 246.61 42.1471C247.55 42.1471 248.384 41.3041 248.489 40.3585C248.698 39.413 248.069 38.6751 247.133 38.6751Z" fill="#2B2C2D"/>
<path d="M11.4688 26.2686H244.733" stroke="#2B2C2D" stroke-width="2" stroke-miterlimit="2.613"/>
<path fill-rule="evenodd" clip-rule="evenodd" d="M236.909 23.4288L196.433 28.371V5.8667L236.909 7.23444V23.4288Z" fill="white"/>
<path d="M236.909 23.4289L196.432 28.3711V5.86816L236.909 7.23456V23.4289Z" stroke="#2B2C2D" stroke-width="2" stroke-miterlimit="2.613"/>
<path fill-rule="evenodd" clip-rule="evenodd" d="M196.432 5.8667L177.027 7.97091V23.534L196.432 28.1605V5.8667Z" fill="white"/>
<path d="M196.431 5.86816L177.027 7.97102V23.5341L196.431 28.1606V5.86816Z" stroke="#2B2C2D" stroke-width="2" stroke-miterlimit="2.613"/>
<path fill-rule="evenodd" clip-rule="evenodd" d="M190.485 9.54757L183.078 9.86321V16.8031L190.485 17.9604V9.54757V9.54757ZM209.784 9.96842V19.0125L218.131 18.276V10.0736L209.784 9.96842V9.96842ZM218.861 10.0736V18.1708L227.52 17.4343V10.284L218.861 10.0736V10.0736ZM234.404 10.284H228.25V17.3291L234.404 16.8031V10.284ZM206.134 27.2149L199.56 27.95V8.3916L206.134 8.70589V27.2149ZM71.1421 50.8752C71.3048 50.9515 71.4833 50.9875 71.6628 50.9804C72.2887 50.9804 72.8107 50.77 73.2288 50.453C73.5404 50.0322 73.7495 49.6127 73.7495 49.0853C73.7495 48.6658 73.6456 48.3501 73.4365 48.0345C73.1236 47.7189 72.9145 47.5071 72.4977 47.4019C72.0585 47.2667 71.6017 47.1967 71.1421 47.1942H68.6387V47.4019H68.8464C69.158 47.4019 69.3684 47.5071 69.4723 47.6123C69.5761 47.7175 69.5761 47.9279 69.5761 48.4553V52.7649C69.5761 53.1858 69.5761 53.3975 69.4723 53.5027C69.3684 53.7132 69.1593 53.8184 68.8464 53.8184H68.6387V54.0261H71.5589V53.8184H71.246C71.0522 53.8142 70.8666 53.7393 70.724 53.608C70.6201 53.5028 70.5163 53.1871 70.5163 52.7649V50.7686C70.724 50.8752 70.9331 50.8752 71.1421 50.8752V50.8752ZM70.5163 47.7189C70.8292 47.6137 71.0369 47.6136 71.246 47.6136C71.4551 47.6136 71.768 47.7189 71.9757 47.8241C72.1848 47.9293 72.2887 48.1397 72.3952 48.3515C72.603 48.6671 72.603 48.8789 72.603 49.1918C72.603 49.6126 72.4991 49.9269 72.29 50.2426C71.9771 50.453 71.6642 50.6634 71.3512 50.6634C71.2474 50.6634 71.1435 50.6634 71.0396 50.5582H70.519V47.7189H70.5163V47.7189ZM75.6271 49.614C75.2103 49.7192 75.0012 50.0335 74.7921 50.4543C74.5919 50.8454 74.4852 51.2776 74.4806 51.7169C74.4806 52.3468 74.6883 52.8728 75.0012 53.295C75.4207 53.8224 75.94 54.1354 76.5659 54.1354C76.984 54.1354 77.4008 54.0302 77.7138 53.8224C78.1306 53.612 78.3396 53.295 78.5487 52.8742C78.7564 52.4533 78.8616 52.0338 78.8616 51.6117C78.8616 51.0869 78.6526 50.5609 78.3396 50.0335C77.9228 49.5088 77.4008 49.2984 76.6711 49.2984C76.2982 49.2886 75.9321 49.3993 75.6271 49.614V49.614ZM77.4008 50.0321C77.7138 50.5595 77.9228 51.1908 77.9228 52.0312C77.9228 52.6611 77.819 53.0819 77.6113 53.3989C77.4022 53.6093 77.1918 53.7145 76.7763 53.7145C76.3595 53.7145 76.0466 53.5041 75.8375 53.0819C75.5246 52.5545 75.4207 52.0312 75.4207 51.296C75.4207 50.8752 75.4207 50.5582 75.5246 50.3478C75.6284 50.0321 75.8375 49.8231 75.9414 49.7179C76.1504 49.6126 76.3595 49.6127 76.4634 49.6127C76.8788 49.614 77.1918 49.7192 77.4008 50.0321ZM80.6354 49.297L79.2784 49.8244V50.0321C79.4875 49.9269 79.5914 49.9269 79.6966 49.9269C79.6966 49.9269 79.8004 49.9269 79.9043 50.0321C79.9043 50.0321 80.0095 50.1374 80.0095 50.2426V53.3975C79.9043 53.608 79.9043 53.608 79.8004 53.7132C79.6966 53.7132 79.5914 53.8184 79.2784 53.8184V54.0261H81.6781V53.8184C81.469 53.8184 81.2613 53.8184 81.156 53.7132C81.0522 53.7132 80.9483 53.608 80.9483 53.5027C80.8431 53.3975 80.8431 53.1871 80.8431 52.8701V50.7673C81.0522 50.4516 81.156 50.1347 81.2626 50.0294C81.3665 50.0294 81.4703 49.9242 81.4703 49.9242C81.5755 49.9242 81.6794 50.0295 81.7846 50.1347C81.9923 50.2399 82.0962 50.3451 82.2014 50.3451C82.3053 50.3451 82.4091 50.2399 82.5143 50.1347C82.6182 50.0295 82.6182 49.9242 82.6182 49.8217C82.6182 49.7165 82.5143 49.5061 82.4091 49.4009C82.3053 49.2957 82.2014 49.2957 81.9923 49.2957C81.5755 49.2957 81.2626 49.6113 80.8445 50.3464V49.2957H80.6354V49.297V49.297ZM84.0777 47.9306C83.9725 48.2463 83.7647 48.458 83.7647 48.5632C83.5557 48.8789 83.4531 49.0879 83.2427 49.1932C83.0604 49.369 82.8485 49.5115 82.6169 49.614V49.7192H83.3466V52.8728C83.3466 53.1885 83.4531 53.4002 83.4531 53.6107L83.7647 53.9263C83.9725 54.0288 84.0777 54.0288 84.2867 54.0288C84.4945 54.0288 84.7035 54.0288 84.9126 53.8211C85.1203 53.6107 85.3294 53.4002 85.4333 53.0833H85.2255C85.1203 53.1885 85.1203 53.2937 85.0165 53.3989C84.9126 53.3989 84.8074 53.5041 84.7035 53.5041C84.4945 53.5041 84.3906 53.3989 84.2867 53.2937C84.2867 53.1885 84.1815 52.978 84.1815 52.7663V49.7179H85.2255V49.4022H84.1815V47.9293H84.0777V47.9306V47.9306ZM88.4587 53.9263C88.4587 54.0288 88.6678 54.0288 88.7703 54.0288C89.0833 54.0288 89.5014 53.8211 89.8143 53.2937V53.0833C89.7091 53.2937 89.5014 53.3989 89.5014 53.3989H89.1885C89.1885 53.3989 89.0833 53.2937 89.0833 53.1885V50.8752C89.0833 50.4543 89.0833 50.1374 88.9794 49.9269C88.8965 49.7403 88.7476 49.5909 88.5613 49.5074C88.3535 49.297 87.9354 49.297 87.6238 49.297C86.9979 49.297 86.6837 49.4022 86.3707 49.6127C86.0578 49.9256 85.9539 50.1374 85.9539 50.453C85.9539 50.5582 85.9539 50.6634 86.0578 50.7686C86.0578 50.8738 86.163 50.8738 86.3707 50.8738C86.4759 50.8738 86.5798 50.8738 86.5798 50.7686C86.6837 50.6634 86.7889 50.5582 86.7889 50.453V50.1374C86.7889 50.0321 86.7889 49.8244 86.8927 49.7179C87.1018 49.6126 87.2057 49.6127 87.4147 49.6127C87.7277 49.6127 87.9354 49.7179 88.0406 49.8231C88.1445 50.0308 88.2497 50.3478 88.2497 50.7686V50.979C87.5186 51.1895 86.8927 51.5037 86.5798 51.7142C86.3153 51.8982 86.0707 52.1093 85.8501 52.3441C85.7435 52.4493 85.7435 52.6597 85.7435 52.8715C85.7435 53.2923 85.8501 53.5041 86.0564 53.7145C86.2655 53.9249 86.4746 54.134 86.7875 54.134C86.9966 54.134 87.2043 54.0288 87.4134 53.9263C87.5172 53.9263 87.8302 53.7159 88.2483 53.2937C88.251 53.6107 88.3549 53.8211 88.4587 53.9263V53.9263ZM87.3109 53.5041C87.1174 53.4999 86.9322 53.4251 86.7902 53.2937C86.5811 53.0833 86.5811 52.8728 86.5811 52.6611C86.5811 52.4493 86.5811 52.3454 86.685 52.1364C86.8941 52.0311 86.9993 51.8207 87.3109 51.7155C87.4161 51.6103 87.729 51.5051 88.251 51.296V52.9767C87.8329 53.2937 87.5199 53.5041 87.3109 53.5041ZM91.4842 46.8785H91.2752L89.8157 47.4032L89.9196 47.6136C90.0234 47.6136 90.1286 47.5084 90.2325 47.5084C90.3364 47.5084 90.4416 47.6136 90.4416 47.6136C90.5454 47.6136 90.5454 47.7189 90.5454 47.8241C90.6493 47.9293 90.6493 48.2449 90.6493 48.7723V53.5041C90.8584 53.7145 91.1713 53.9249 91.4842 54.0288C91.6933 54.0288 92.0062 54.134 92.3192 54.134C92.8412 54.134 93.3618 53.9263 93.78 53.5041C94.3006 52.9767 94.6136 52.3454 94.6136 51.5051C94.6136 50.8752 94.4059 50.2426 94.0929 49.9269C93.9521 49.7271 93.7643 49.5651 93.5459 49.4552C93.3276 49.3453 93.0855 49.291 92.8412 49.297C92.3192 49.297 91.901 49.6126 91.4842 50.2426V46.8785ZM92.0062 50.1374C92.1101 50.0321 92.3178 50.0321 92.5269 50.0321C92.8412 50.0321 93.0489 50.1374 93.3618 50.453C93.5709 50.7686 93.78 51.1908 93.78 51.8207C93.78 52.4506 93.5709 52.9767 93.3618 53.2937C93.0489 53.6093 92.8412 53.7145 92.5269 53.7145C92.3192 53.7145 92.1101 53.7145 92.0062 53.6093C91.7972 53.5041 91.5867 53.3989 91.4842 53.2937V50.5595C91.6933 50.3491 91.7972 50.2439 92.0062 50.1374V50.1374ZM96.5964 46.8785L95.2394 47.4032L95.3446 47.6136C95.4485 47.6136 95.5524 47.5084 95.6576 47.5084C95.7614 47.5084 95.8653 47.6136 95.8653 47.6136C95.9705 47.6136 95.9705 47.7189 95.9705 47.8241V53.5041C95.8653 53.6093 95.8653 53.7145 95.7615 53.7145C95.6576 53.8197 95.5524 53.8197 95.3446 53.8197V54.0275H97.5352V53.8197C97.3261 53.8197 97.2223 53.8197 97.117 53.7145C97.0132 53.7145 96.9093 53.6093 96.9093 53.5041C96.9093 53.3989 96.8055 53.2937 96.8055 52.9767V46.8785H96.5964ZM102.021 51.1922C102.021 50.5595 101.812 50.1387 101.499 49.8244C101.187 49.4036 100.768 49.297 100.248 49.297C99.6219 49.297 99.0999 49.5074 98.7869 49.9269C98.3701 50.3478 98.1611 50.9804 98.1611 51.7155C98.1611 52.4506 98.3701 53.0833 98.6831 53.5041C99.0999 53.9249 99.6219 54.134 100.143 54.134C100.665 54.134 101.081 53.9263 101.396 53.6093C101.707 53.1885 101.916 52.7663 102.021 52.3441L101.812 52.2416C101.707 52.6611 101.499 52.8715 101.29 53.0819C101.031 53.2132 100.746 53.2851 100.455 53.2923C100.039 53.2923 99.6219 53.0819 99.3089 52.7649C98.996 52.3441 98.8908 51.8194 98.8908 51.1895H102.021V51.1922V51.1922ZM99.2037 49.9269C99.4016 49.7377 99.6613 49.6266 99.9348 49.614C100.143 49.614 100.352 49.7192 100.455 49.8244C100.643 49.9059 100.793 50.056 100.874 50.2439C100.874 50.3491 100.977 50.5595 100.977 50.8765H98.8908C98.8908 50.4543 98.996 50.1374 99.2037 49.9269V49.9269ZM109.323 52.6624C109.428 52.9781 109.532 53.295 109.532 53.4002C109.532 53.5055 109.428 53.6107 109.323 53.7159C109.219 53.7159 109.115 53.8211 108.802 53.8211V54.0288H111.515V53.8211C111.202 53.8211 110.993 53.7159 110.784 53.6107C110.68 53.4002 110.471 53.1898 110.262 52.6624L107.967 47.0903H107.758L105.464 52.6624C105.255 53.0833 105.046 53.4002 104.838 53.6107C104.838 53.7159 104.629 53.7159 104.316 53.8211V54.0288H106.506V53.8211C106.088 53.8211 105.881 53.7159 105.777 53.6107C105.777 53.6107 105.671 53.5055 105.671 53.4002C105.671 53.295 105.777 53.0846 105.881 52.7676L106.297 51.7169H108.906L109.323 52.6624V52.6624ZM106.506 51.4026L107.654 48.6684L108.697 51.4026H106.506ZM115.583 52.1377C115.478 52.5572 115.27 52.8728 115.061 52.978C114.852 53.1885 114.539 53.3989 114.226 53.3989C113.809 53.3989 113.392 53.1885 113.079 52.7663C112.866 52.306 112.759 51.8034 112.766 51.296C112.766 50.7686 112.87 50.3478 113.183 49.9256C113.287 49.7179 113.6 49.6127 113.913 49.6127C114.122 49.6127 114.331 49.6126 114.435 49.7179C114.539 49.8231 114.539 50.0308 114.644 50.2426C114.644 50.453 114.644 50.5582 114.748 50.5582C114.852 50.7686 114.957 50.7686 115.165 50.7686C115.27 50.7686 115.374 50.7686 115.478 50.6634C115.583 50.5582 115.583 50.453 115.583 50.3478C115.583 50.1374 115.478 49.8231 115.165 49.6127C114.852 49.4022 114.539 49.297 114.122 49.297C113.496 49.297 112.974 49.5074 112.557 49.9269C112.141 50.4543 111.932 50.9804 111.932 51.7155C111.932 52.4506 112.141 52.978 112.557 53.5041C112.87 53.9249 113.392 54.134 113.809 54.134C114.331 54.134 114.644 53.9263 115.061 53.6093C115.374 53.2937 115.583 52.8715 115.792 52.2416L115.583 52.1377ZM120.068 52.1377C119.964 52.5572 119.755 52.8728 119.547 52.978C119.338 53.1885 119.025 53.3989 118.712 53.3989C118.496 53.4025 118.284 53.3451 118.1 53.2331C117.915 53.1212 117.766 52.9593 117.67 52.7663C117.357 52.3454 117.251 51.8207 117.251 51.296C117.251 50.7686 117.357 50.3478 117.67 49.9256C117.761 49.8238 117.874 49.7431 118 49.6891C118.126 49.635 118.262 49.609 118.399 49.6127C118.608 49.6127 118.816 49.6126 118.921 49.7179C119.025 49.8231 119.129 50.0308 119.129 50.2426C119.129 50.4543 119.129 50.5582 119.236 50.5582C119.339 50.7686 119.443 50.7686 119.652 50.7686C119.86 50.7686 119.964 50.7686 119.964 50.6634C120.068 50.5582 120.173 50.453 120.173 50.3478C120.173 50.1374 119.964 49.8231 119.651 49.6127C119.442 49.4022 119.025 49.297 118.608 49.297C117.982 49.297 117.46 49.5074 117.044 49.9269C116.626 50.4543 116.418 50.9804 116.418 51.7155C116.418 52.4506 116.626 52.978 117.044 53.5041C117.357 53.9249 117.877 54.134 118.399 54.134C118.816 54.134 119.234 53.9263 119.547 53.6093C119.859 53.2937 120.173 52.8715 120.277 52.2416L120.068 52.1377V52.1377ZM122.051 49.614C121.738 49.7192 121.425 50.0335 121.216 50.4543C121.015 50.8453 120.908 51.2775 120.903 51.7169C120.903 52.3468 121.112 52.8728 121.425 53.295C121.843 53.8224 122.364 54.1354 123.093 54.1354C123.511 54.1354 123.928 54.0302 124.241 53.8224C124.554 53.612 124.867 53.295 125.076 52.8742C125.18 52.4533 125.285 52.0338 125.285 51.6117C125.285 51.0869 125.18 50.5609 124.763 50.0335C124.345 49.5088 123.824 49.2984 123.093 49.2984C122.723 49.3035 122.362 49.4129 122.051 49.614ZM123.928 50.0321C124.241 50.5595 124.346 51.1908 124.346 52.0312C124.346 52.6611 124.346 53.0819 124.033 53.3989C123.93 53.6093 123.615 53.7145 123.302 53.7145C122.886 53.7145 122.573 53.5041 122.26 53.0819C121.947 52.5545 121.842 52.0312 121.842 51.296C121.842 50.8752 121.947 50.5582 122.051 50.3478C122.154 50.0321 122.26 49.8231 122.467 49.7179C122.677 49.6126 122.779 49.6127 122.989 49.6127C123.302 49.614 123.615 49.7192 123.928 50.0321ZM127.371 49.297H127.163L125.702 49.8244L125.806 50.0321C125.911 49.9269 126.015 49.9269 126.119 49.9269C126.224 49.9269 126.328 49.9269 126.328 50.0321C126.432 50.0321 126.432 50.1374 126.432 50.2426C126.537 50.3478 126.537 50.6634 126.537 51.1908V52.9767C126.537 53.2923 126.537 53.3975 126.432 53.5041C126.432 53.6093 126.328 53.7145 126.224 53.7145C126.224 53.8197 126.015 53.8197 125.806 53.8197V54.0275H128.102V53.8197C127.789 53.8197 127.683 53.8197 127.58 53.7145C127.476 53.7145 127.476 53.6093 127.371 53.5041V50.453C127.476 50.3478 127.683 50.1374 127.996 50.0321C128.139 49.9016 128.325 49.8278 128.518 49.8244C128.727 49.8244 128.935 49.9269 129.144 50.1374C129.248 50.3478 129.248 50.6648 129.248 50.9804V53.3975C129.144 53.608 129.144 53.608 129.04 53.7132C128.935 53.8184 128.727 53.8184 128.518 53.8184V54.0261H130.814V53.8184C130.606 53.8184 130.396 53.8184 130.292 53.7132C130.187 53.7132 130.187 53.608 130.083 53.5027V50.4516C130.292 50.2412 130.503 50.136 130.709 50.0308C130.918 49.9256 131.022 49.9256 131.232 49.9256C131.544 49.9256 131.754 50.0308 131.858 50.2412C131.962 50.3464 131.962 50.6621 131.962 50.979V53.3962C131.962 53.5014 131.858 53.6066 131.858 53.7118C131.649 53.7118 131.545 53.817 131.336 53.817H131.232V54.0248H133.525V53.817C133.319 53.817 133.109 53.817 133.109 53.7118C133.005 53.7118 132.899 53.6066 132.899 53.5014C132.797 53.3962 132.797 53.291 132.797 52.974V50.9777C132.797 50.5569 132.797 50.2399 132.693 50.0294C132.588 49.8217 132.484 49.61 132.274 49.5047C132.066 49.2943 131.857 49.2943 131.648 49.2943C131.336 49.2943 131.127 49.2943 130.918 49.5047C130.586 49.6813 130.3 49.933 130.083 50.2399C129.979 49.9242 129.875 49.7152 129.666 49.5047C129.457 49.3995 129.144 49.2943 128.935 49.2943C128.727 49.2943 128.518 49.2943 128.415 49.3995C128.205 49.3995 128.102 49.5047 127.891 49.7152L127.369 50.2399V49.297H127.371V49.297ZM135.194 49.297H134.986L133.629 49.8244L133.733 50.0321C133.837 49.9269 133.942 49.9269 134.046 49.9269C134.15 49.9269 134.15 49.9269 134.255 50.0321C134.255 50.0321 134.358 50.1374 134.358 50.2426V53.5041C134.255 53.6093 134.255 53.7145 134.15 53.7145C134.046 53.8197 133.942 53.8197 133.732 53.8197V54.0275H135.922V53.8197C135.715 53.8197 135.505 53.8197 135.505 53.7145C135.402 53.7145 135.296 53.6093 135.296 53.5041C135.193 53.3989 135.193 53.2937 135.193 52.9767V50.453C135.402 50.3478 135.611 50.1374 135.82 50.0321C136.027 49.9269 136.237 49.8244 136.342 49.8244C136.653 49.8244 136.862 49.9269 136.968 50.1374C137.071 50.3478 137.174 50.6648 137.174 50.9804V53.3975C137.071 53.608 137.071 53.608 136.968 53.7132C136.862 53.8184 136.655 53.8184 136.446 53.8184V54.0261H138.741V53.8184C138.427 53.8184 138.322 53.8184 138.218 53.7132C138.113 53.7132 138.009 53.608 138.009 53.5027V50.7673L137.906 50.5568V50.4516C138.218 50.2412 138.427 50.136 138.636 50.0308C138.741 49.9256 138.948 49.9256 139.158 49.9256C139.366 49.9256 139.575 50.0308 139.784 50.2412C139.888 50.3464 139.888 50.6621 139.888 50.979V53.3962C139.784 53.5014 139.784 53.6066 139.68 53.7118C139.575 53.7118 139.471 53.817 139.262 53.817H139.158V54.0248H141.349V53.817C141.14 53.817 141.036 53.817 140.931 53.7118C140.825 53.7118 140.825 53.6066 140.723 53.5014V50.9777C140.723 50.5569 140.619 50.2399 140.619 50.0294C140.5 49.8065 140.318 49.6239 140.096 49.5047C139.993 49.2943 139.784 49.2943 139.47 49.2943C139.262 49.2943 139.053 49.2943 138.741 49.5047C138.409 49.6809 138.123 49.9327 137.906 50.2399C137.906 49.9242 137.697 49.7152 137.487 49.5047C137.279 49.3995 137.07 49.2943 136.757 49.2943C136.653 49.2943 136.446 49.2943 136.235 49.3995C136.131 49.3995 135.922 49.5047 135.818 49.7152C135.713 49.7152 135.505 49.9229 135.191 50.2399V49.297H135.194V49.297ZM142.913 49.614C142.602 49.7192 142.288 50.0335 142.08 50.4543C141.872 50.8752 141.767 51.2974 141.767 51.7169C141.767 52.3468 141.976 52.8728 142.289 53.295C142.707 53.8224 143.228 54.1354 143.959 54.1354C144.377 54.1354 144.688 54.0302 145.107 53.8224C145.418 53.612 145.732 53.295 145.836 52.8742C146.044 52.4533 146.149 52.0338 146.149 51.6117C146.149 51.0869 146.044 50.5609 145.627 50.0335C145.209 49.5088 144.688 49.2984 143.959 49.2984C143.588 49.3039 143.226 49.4132 142.913 49.614V49.614ZM144.688 50.0321C145.107 50.5595 145.21 51.1908 145.21 52.0312C145.21 52.6611 145.107 53.0819 144.899 53.3989C144.807 53.5014 144.694 53.5827 144.568 53.6372C144.442 53.6917 144.305 53.7181 144.168 53.7145C143.952 53.7183 143.74 53.6609 143.555 53.549C143.37 53.437 143.221 53.2751 143.125 53.0819C142.814 52.5545 142.707 52.0312 142.707 51.296C142.707 50.8752 142.812 50.5582 142.915 50.3478C143.02 50.0321 143.124 49.8231 143.333 49.7179C143.438 49.6126 143.647 49.6127 143.855 49.6127C144.166 49.614 144.478 49.7192 144.688 50.0321ZM150.008 54.134H150.217L151.573 53.6093V53.3989C151.365 53.3989 151.26 53.5041 151.155 53.5041L151.051 53.3989C150.946 53.3989 150.946 53.2937 150.843 53.1885V46.8799H150.634L149.279 47.4046V47.615C149.486 47.615 149.592 47.5098 149.695 47.5098C149.801 47.5098 149.801 47.615 149.904 47.615C149.904 47.615 150.008 47.7202 150.008 47.8254V49.7192C149.801 49.4036 149.486 49.2984 149.07 49.2984C148.444 49.2984 147.818 49.5088 147.505 50.1387C147.085 50.6386 146.863 51.2747 146.879 51.9273C146.879 52.5572 146.983 53.0833 147.401 53.5055C147.714 53.9263 148.236 54.1354 148.654 54.1354C148.966 54.1354 149.176 54.0302 149.384 53.9276C149.593 53.8224 149.802 53.7172 150.01 53.5068V54.134H150.008V54.134ZM149.175 53.6107C148.757 53.6107 148.444 53.4002 148.131 53.0833C147.923 52.6624 147.714 52.1377 147.714 51.5051C147.714 50.8752 147.922 50.3491 148.236 50.0321C148.444 49.7192 148.654 49.6127 148.966 49.6127C149.175 49.6127 149.279 49.6126 149.488 49.7179C149.593 49.8231 149.801 49.9256 149.801 50.1374C149.904 50.3478 150.008 50.5582 150.008 50.77V53.0833C149.694 53.3989 149.486 53.6107 149.175 53.6107ZM154.597 53.9263C154.702 54.0288 154.806 54.0288 155.017 54.0288C155.33 54.0288 155.643 53.8211 156.058 53.2937V53.0833C155.85 53.2937 155.746 53.3989 155.641 53.3989H155.432C155.33 53.3989 155.33 53.2937 155.33 53.1885V50.8752C155.33 50.4543 155.224 50.1374 155.224 49.9269C155.121 49.7192 154.911 49.614 154.806 49.5074C154.495 49.297 154.18 49.297 153.765 49.297C153.242 49.297 152.826 49.4022 152.51 49.6127C152.2 49.9256 152.094 50.1374 152.094 50.453C152.094 50.5582 152.094 50.6634 152.199 50.7686C152.303 50.8738 152.407 50.8738 152.509 50.8738C152.614 50.8738 152.718 50.8738 152.823 50.7686C152.927 50.6634 152.927 50.5582 152.927 50.453V50.1374C152.927 50.0321 153.031 49.8244 153.135 49.7179C153.239 49.6113 153.448 49.6127 153.657 49.6127C153.866 49.6127 154.075 49.7179 154.283 49.8231C154.388 50.0308 154.492 50.3478 154.492 50.7686V50.979C153.896 51.1217 153.331 51.3707 152.823 51.7142C152.405 51.9246 152.198 52.135 152.092 52.3441C151.961 52.489 151.887 52.6762 151.883 52.8715C151.883 53.2923 151.988 53.5041 152.198 53.7145C152.405 53.9249 152.718 54.134 153.031 54.134C153.239 54.134 153.449 54.0288 153.553 53.9263C153.657 53.9263 153.97 53.7159 154.492 53.2937C154.495 53.6107 154.495 53.8211 154.597 53.9263V53.9263ZM153.452 53.5041C153.243 53.5041 153.139 53.3989 152.93 53.2937C152.826 53.0833 152.721 52.8728 152.721 52.6611C152.721 52.4493 152.826 52.3454 152.93 52.1364C153.034 52.0311 153.242 51.8207 153.452 51.7155C153.66 51.6103 153.973 51.5051 154.495 51.296V52.9767C154.078 53.2937 153.765 53.5041 153.452 53.5041ZM157.624 47.9306C157.416 48.2463 157.311 48.458 157.206 48.5632C157.118 48.8034 156.975 49.0193 156.788 49.1932C156.58 49.4036 156.37 49.5088 156.16 49.614V49.7192H156.892V52.8728C156.892 53.1885 156.892 53.4002 156.995 53.6107L157.308 53.9263C157.435 53.9979 157.579 54.0334 157.725 54.0288C158.039 54.0288 158.247 54.0288 158.456 53.8211C158.665 53.6107 158.769 53.4002 158.874 53.0833H158.771L158.458 53.3989C158.354 53.3989 158.249 53.5041 158.146 53.5041C158.042 53.5041 157.937 53.3989 157.833 53.2937C157.728 53.1885 157.728 52.978 157.728 52.7663V49.7179H158.772V49.4022H157.728V47.9293H157.624V47.9306V47.9306ZM160.024 46.9851C159.92 47.0903 159.92 47.3007 159.92 47.4046C159.92 47.5098 159.92 47.615 160.024 47.7202C160.127 47.8254 160.233 47.9306 160.335 47.9306C160.544 47.9306 160.648 47.8254 160.753 47.7202C160.859 47.615 160.859 47.5098 160.859 47.4046C160.859 47.3021 160.859 47.0916 160.753 46.9851C160.649 46.9851 160.546 46.8799 160.335 46.8799C160.233 46.8785 160.127 46.9851 160.024 46.9851ZM160.544 49.297L159.187 49.8244L159.293 50.0321C159.396 49.9269 159.5 49.9269 159.604 49.9269C159.709 49.9269 159.812 49.9269 159.812 50.0321C159.812 50.0321 159.917 50.1374 159.917 50.2426V53.5041C159.812 53.6093 159.812 53.7145 159.709 53.7145C159.604 53.8197 159.5 53.8197 159.291 53.8197V54.0275H161.482V53.8197C161.273 53.8197 161.062 53.8197 161.062 53.7145C160.96 53.7145 160.856 53.6093 160.856 53.5041C160.856 53.3989 160.751 53.2937 160.751 52.9767V49.2957H160.544V49.297V49.297ZM163.153 49.614C162.84 49.7192 162.631 50.0335 162.422 50.4543C162.222 50.8454 162.115 51.2776 162.11 51.7169C162.11 52.3468 162.214 52.8728 162.632 53.295C162.945 53.8224 163.571 54.1354 164.197 54.1354C164.615 54.1354 165.031 54.0302 165.345 53.8224C165.656 53.612 165.972 53.295 166.18 52.8742C166.387 52.4533 166.491 52.0338 166.491 51.6117C166.491 51.0869 166.282 50.5609 165.971 50.0335C165.551 49.5088 164.927 49.2984 164.301 49.2984C163.884 49.297 163.571 49.4022 163.153 49.614ZM165.031 50.0321C165.343 50.5595 165.553 51.1908 165.553 52.0312C165.553 52.6611 165.45 53.0819 165.241 53.3989C165.015 53.6091 164.715 53.7224 164.406 53.7145C163.989 53.7145 163.676 53.5041 163.365 53.0819C163.156 52.5545 163.052 52.0312 163.052 51.296C163.052 50.8752 163.052 50.5582 163.156 50.3478C163.26 50.0321 163.467 49.8231 163.574 49.7179C163.782 49.6126 163.992 49.6127 164.094 49.6127C164.51 49.614 164.821 49.7192 165.031 50.0321ZM168.473 49.297H168.265L166.804 49.8244L166.907 50.0321C167.012 49.9269 167.116 49.9269 167.221 49.9269C167.325 49.9269 167.429 49.9269 167.429 50.0321C167.533 50.0321 167.533 50.1374 167.533 50.2426C167.637 50.3478 167.637 50.6634 167.637 51.296V52.9767C167.637 53.2923 167.533 53.5041 167.533 53.6093C167.39 53.7412 167.205 53.8161 167.011 53.8197H166.905V54.0275H169.201V53.8197C168.89 53.8197 168.784 53.8197 168.679 53.7145C168.575 53.7145 168.575 53.6093 168.471 53.5041V50.5582C168.784 50.1374 169.201 49.9256 169.619 49.9256C169.827 49.9256 170.038 49.9256 170.141 50.136C170.245 50.3464 170.35 50.6634 170.35 51.0843V52.9753C170.35 53.1858 170.245 53.3962 170.245 53.3962C170.245 53.5014 170.141 53.6066 170.141 53.7118C170.038 53.817 169.828 53.817 169.619 53.817V54.0248H171.811V53.817C171.602 53.817 171.497 53.817 171.392 53.7118C171.288 53.7118 171.185 53.6066 171.185 53.5014C171.185 53.3962 171.08 53.291 171.08 52.974V50.9777C171.08 50.5569 171.08 50.2399 170.976 50.0294C170.871 49.8217 170.767 49.61 170.56 49.5047C170.453 49.2943 170.245 49.2943 169.931 49.2943C169.514 49.2943 168.993 49.61 168.471 50.2399V49.297H168.473V49.297ZM178.384 47.6136H179.01C179.219 47.7189 179.322 47.8241 179.427 47.9293C179.532 48.1397 179.636 48.3501 179.636 48.6671H179.845L179.741 47.1942H174.629V47.4019H174.837C175.15 47.4019 175.359 47.5071 175.463 47.6123C175.568 47.7175 175.568 47.9279 175.568 48.3501V52.7649C175.568 53.0806 175.568 53.3975 175.463 53.3975C175.463 53.608 175.359 53.608 175.255 53.7132C175.151 53.7132 175.046 53.8184 174.837 53.8184H174.629V54.0261H179.741L180.367 52.2402H180.158C179.95 52.6597 179.741 52.9753 179.532 53.1858C179.323 53.3962 179.221 53.5014 179.01 53.5014C178.906 53.6066 178.592 53.6066 178.175 53.6066H176.716L176.507 53.3962V50.6607H177.969C178.28 50.6607 178.488 50.6607 178.593 50.7659C178.801 50.7659 178.801 50.8711 178.906 50.9764C179.01 51.0816 179.01 51.292 179.01 51.6063H179.219V49.293H179.01C179.01 49.7138 178.906 49.9229 178.801 50.0281C178.593 50.2385 178.384 50.2385 177.969 50.2385H176.507V47.6096H178.384V47.6136V47.6136ZM180.679 49.614C180.886 49.614 181.097 49.614 181.201 49.7192C181.303 49.8244 181.512 50.0321 181.826 50.4543L182.661 51.7169L181.723 52.9794C181.41 53.4002 181.201 53.612 181.097 53.7172C180.993 53.7172 180.888 53.8224 180.785 53.8224V54.0302H182.245V53.8224C182.037 53.8224 181.933 53.8224 181.933 53.7172C181.828 53.612 181.828 53.612 181.828 53.5068C181.828 53.4016 181.933 53.2964 182.139 52.9794L182.872 51.9286L183.498 52.9794C183.704 53.295 183.809 53.4002 183.809 53.5068C183.809 53.6134 183.809 53.7172 183.704 53.7172C183.704 53.8224 183.498 53.8224 183.393 53.8224V54.0302H185.584V53.8224C185.375 53.8224 185.166 53.7172 185.061 53.7172C184.959 53.612 184.749 53.4016 184.435 52.9794L183.393 51.2987L184.018 50.4557C184.226 50.0348 184.437 49.8258 184.644 49.7206C184.749 49.6154 184.853 49.6154 185.062 49.6154V49.4049H183.499V49.6154C183.705 49.6154 183.705 49.6154 183.811 49.7206L183.915 49.8258C183.915 49.9283 183.811 50.1387 183.498 50.4557L183.185 50.9831L182.873 50.4557L182.664 50.2453C182.56 50.0348 182.455 49.9296 182.455 49.8258L182.56 49.7206C182.664 49.6154 182.768 49.6154 182.873 49.6154V49.4049H180.681V49.614H180.679ZM185.687 50.0321C185.791 49.9269 185.893 49.9269 185.999 49.9269C186.102 49.9269 186.208 49.9269 186.208 50.0321C186.311 50.0321 186.311 50.1374 186.415 50.1374V55.7122L186.208 55.9226C186.102 55.9226 185.893 56.0278 185.789 56.0278H185.582V56.133H187.98V56.0278C187.772 56.0278 187.562 55.9226 187.458 55.9226C187.353 55.9226 187.353 55.8174 187.249 55.7122V53.7145C187.353 53.8197 187.562 53.9249 187.667 54.0275C187.876 54.1327 188.085 54.1327 188.293 54.1327C188.92 54.1327 189.337 53.9249 189.754 53.5027C190.172 52.9753 190.38 52.3441 190.38 51.5038C190.38 50.8738 190.172 50.2412 189.858 49.8231C189.546 49.5074 189.128 49.2957 188.71 49.2957C188.398 49.2957 188.188 49.4009 187.98 49.5061C187.66 49.7089 187.405 50.001 187.249 50.3464V49.2957H187.041L185.686 49.8231V50.0321H185.687V50.0321ZM187.877 50.1374C187.981 50.0321 188.189 50.0321 188.294 50.0321C188.607 50.0321 188.816 50.1374 189.025 50.3478C189.338 50.7686 189.547 51.296 189.547 52.0312C189.547 52.6611 189.34 53.0819 189.129 53.3989C188.921 53.7145 188.607 53.8197 188.294 53.8197C187.983 53.8197 187.774 53.7145 187.668 53.6093C187.461 53.5041 187.355 53.2937 187.25 53.0819V50.6634C187.461 50.3491 187.668 50.1374 187.877 50.1374ZM194.971 51.1922C194.971 50.5595 194.763 50.1387 194.448 49.8244C194.138 49.4036 193.719 49.297 193.196 49.297C192.57 49.297 192.155 49.5074 191.737 49.9269C191.318 50.3478 191.109 50.9804 191.109 51.7155C191.109 52.4506 191.318 53.0833 191.737 53.5041C192.049 53.9249 192.57 54.134 193.092 54.134C193.615 54.134 194.031 53.9263 194.345 53.6093C194.657 53.1885 194.867 52.7663 194.971 52.3441L194.763 52.2416C194.658 52.6611 194.449 52.8715 194.241 53.0819C194.032 53.1871 193.719 53.2923 193.512 53.2923C192.99 53.2923 192.677 53.0819 192.257 52.7649C191.946 52.3441 191.84 51.8194 191.84 51.1895H194.971V51.1922V51.1922ZM192.155 49.9269C192.364 49.7192 192.677 49.614 192.884 49.614C193.092 49.614 193.303 49.7192 193.406 49.8244C193.594 49.9055 193.743 50.0557 193.823 50.2439C193.823 50.3491 193.928 50.5595 193.928 50.8765H191.842C191.842 50.4543 191.946 50.1374 192.155 49.9269V49.9269ZM196.641 49.297L195.283 49.8244L195.388 50.0321C195.492 49.9269 195.596 49.9269 195.699 49.9269C195.805 49.9269 195.907 49.9269 195.907 50.0321C196.012 50.0321 196.012 50.1374 196.012 50.2426C196.012 50.3478 196.116 50.6634 196.116 51.1908V52.9767C196.116 53.1871 196.012 53.3975 196.012 53.3975C196.012 53.608 195.907 53.608 195.907 53.7132C195.805 53.7132 195.596 53.8184 195.387 53.8184V54.0261H197.681V53.8184C197.472 53.8184 197.369 53.8184 197.264 53.7132C197.055 53.7132 197.055 53.608 196.951 53.5027C196.951 53.3975 196.846 53.1871 196.846 52.8701V50.7673C197.055 50.4516 197.159 50.1347 197.369 50.0294C197.369 50.0294 197.472 49.9242 197.577 49.9242C197.577 49.9242 197.681 50.0295 197.89 50.1347C197.994 50.2399 198.098 50.3451 198.202 50.3451C198.409 50.3451 198.409 50.2399 198.515 50.1347C198.618 50.0295 198.724 49.9242 198.724 49.8217C198.724 49.7165 198.618 49.5061 198.515 49.4009C198.409 49.2957 198.202 49.2957 198.096 49.2957C197.678 49.2957 197.263 49.6113 196.843 50.3464V49.2957H196.641V49.297V49.297ZM200.083 47.9306C199.979 48.2463 199.874 48.458 199.77 48.5632C199.687 48.8341 199.499 49.0606 199.248 49.1932C199.039 49.4036 198.935 49.5088 198.728 49.614V49.7192H199.457V52.8728C199.457 53.1885 199.457 53.4002 199.56 53.6107C199.56 53.7159 199.769 53.8211 199.873 53.9263C199.978 54.0288 200.186 54.0288 200.29 54.0288C200.499 54.0288 200.709 54.0288 201.021 53.8211C201.125 53.6107 201.334 53.4002 201.439 53.0833H201.231C201.231 53.1885 201.126 53.2937 201.022 53.3989C200.918 53.3989 200.814 53.5041 200.71 53.5041C200.607 53.5041 200.501 53.3989 200.398 53.2937C200.292 53.1885 200.292 52.978 200.292 52.7663V49.7179H201.336V49.4022H200.292V47.9293H200.083V47.9306V47.9306ZM204.568 49.297L204.464 49.4022C204.36 49.5074 204.36 49.5074 204.255 49.5074C204.255 49.5074 204.151 49.4022 203.945 49.4022C203.736 49.297 203.526 49.297 203.318 49.297C202.9 49.297 202.588 49.4022 202.275 49.6127C202.066 49.9256 201.962 50.2426 201.962 50.5582C201.962 50.8738 201.962 51.0856 202.171 51.296C202.275 51.5038 202.589 51.7155 203.11 51.9259C203.527 52.2416 203.945 52.4506 204.048 52.5559C204.255 52.6611 204.255 52.8715 204.255 53.1885C204.255 53.2937 204.255 53.5041 204.048 53.6093C203.905 53.7415 203.72 53.8164 203.526 53.8197C203.217 53.8281 202.918 53.7147 202.692 53.5041C202.379 53.1885 202.17 52.8715 202.065 52.4506H201.961V54.0288H202.065C202.17 53.9263 202.17 53.9263 202.274 53.9263C202.378 53.9263 202.482 53.9263 202.587 54.0288C202.898 54.0288 203.211 54.134 203.524 54.134C203.944 54.134 204.254 54.0288 204.567 53.7145C204.878 53.5041 204.985 53.1871 204.985 52.7663C204.985 52.2416 204.673 51.7155 204.046 51.4012L203.316 51.0856C203.004 50.8752 202.794 50.77 202.691 50.6648C202.587 50.5595 202.482 50.3491 202.482 50.1374C202.482 50.0321 202.587 49.9269 202.691 49.7179C202.898 49.6126 203.109 49.6127 203.316 49.6127C203.628 49.6127 203.838 49.7179 204.046 49.8231C204.254 50.0308 204.359 50.3478 204.568 50.8738H204.673V49.2957H204.568V49.297V49.297Z" fill="#2B2C2D"/>
</svg>
