<svg width="260" height="62" viewBox="0 0 260 62" fill="none" xmlns="http://www.w3.org/2000/svg">
<path d="M26.0888 5.3158H7.31515C7.31515 5.3158 3.66253 4.76245 1.48565 8.39659C-0.868769 12.3313 2.08135 17.9693 2.08135 17.9693L10.1896 31.0806C10.1896 31.0806 11.0272 32.1197 10.3878 33.2043C9.8034 34.197 8.66291 34.0969 8.66291 34.0969H0L2.35983 46.4224H21.6025C21.6025 46.4224 26.1591 46.9757 28.3797 42.2754C30.42 37.955 27.5433 34.0969 27.5433 34.0969L19.4396 19.0719C19.4396 19.0719 19.1904 18.5722 19.4396 18.2369C19.6663 17.9341 20.0786 17.9864 20.0786 17.9864H28.463L26.0888 5.3158V5.3158Z" fill="#0053A0"/>
<path d="M56.1004 46.4739C56.1004 46.4739 42.8147 47.9086 33.7575 34.1313C28.7995 26.5881 27.618 5.77686 47.3334 5.22217C52.4419 5.22217 56.606 5.30102 56.606 5.30102L59.1321 17.9604C59.1321 17.9604 54.4206 18.0041 50.3579 18.0041C46.2957 18.0041 44.4396 20.6654 44.4396 23.538C44.4396 26.4106 44.8154 31.9603 54.2489 34.1313C57.4594 34.8707 59.8265 34.2115 59.8265 34.2115L56.1004 46.4739V46.4739Z" fill="#0053A0"/>
<path d="M77.6172 19.375H63.3389V46.4326H77.6172V19.375Z" fill="#0053A0"/>
<path d="M157.46 5.33838L153.577 23.6569L150.053 5.33838H135.893L145.989 46.4616H160.387L163.613 30.5399L166.421 43.8891L172.275 19.6433L170.185 5.33838H157.46Z" fill="#0053A0"/>
<path d="M177.951 5.33838L176.756 11.2057H202.745L204.415 5.33838H177.951Z" fill="#ED1C24"/>
<path d="M176.337 13.1797L174.426 20.3628H186.732L189.003 13.1797H176.337V13.1797Z" fill="#0053A0"/>
<path d="M173.949 22.9961L172.574 28.6246H196.411L198.144 22.9961H173.949V22.9961Z" fill="#ED1C24"/>
<path d="M172.336 31.0781H184.822L181.297 46.4028H168.691L172.336 31.0781Z" fill="#0053A0"/>
<path d="M200.951 46.4621H208.897L219.291 5.33887H211.525L200.951 46.4621Z" fill="#ED1C24"/>
<path d="M224.278 5.27148H232.113L237.752 19.2137L251.292 5.27148H259.879L240.949 26.0602L249.913 46.4092H241.764L235.434 32.0898L221.959 46.4092H212.996L232.489 24.9292L224.278 5.27148V5.27148Z" fill="#ED1C24"/>
<path d="M103.604 5.27832H133.056L136.402 17.5488H119.256V19.8302H133.892L130.069 32.0133H119.077V34.0113H137.358L133.473 46.4029H103.664L103.604 5.27832V5.27832Z" fill="#0053A0"/>
<path d="M112.551 51.3075C108.161 49.4659 102.587 46.6721 99.2133 43.2588C93.0003 36.9742 92.3244 32.0851 92.3244 32.0851C92.3244 32.0851 102.2 24.4626 99.9297 15.3649C97.3784 5.14151 90.9654 5.48532 81.1083 5.48532L63.7262 5.36816L61.3975 17.9982C61.3975 17.9982 78.3515 17.9261 80.5622 17.9869C82.7715 18.046 85.3161 18.1361 85.281 21.5774C85.2512 24.5122 78.8233 28.0084 78.8233 28.0084C78.8233 28.0084 77.8261 35.2983 86.9058 46.4932C90.4107 50.8136 94.5833 54.6492 98.3864 57.7345L112.551 51.3075V51.3075Z" fill="#0053A0"/>
</svg>
