<svg width="100" height="100" viewBox="0 0 100 100" fill="none" xmlns="http://www.w3.org/2000/svg">
<path d="M28.6548 76.7057C28.6548 76.3882 28.6548 76.1093 28.6548 75.8305C28.6547 57.8742 28.655 39.918 28.6557 21.9618C28.6563 17.5307 31.9419 14.2173 36.3686 14.2087C43.1686 14.1954 49.9686 14.196 56.7686 14.2105C61.2511 14.22 64.5243 17.5143 64.5282 21.9896C64.5326 26.9643 64.5294 31.939 64.5185 36.9136C64.5165 37.4552 64.6538 37.675 65.2227 37.7968C69.0942 38.6258 71.2534 41.3301 71.2532 45.2718C71.2528 52.7565 71.2537 60.2411 71.2559 67.7258C71.2594 69.3215 71.6675 70.8904 72.4419 72.2857C73.0638 73.4242 73.7644 73.4226 74.3945 72.284C75.1413 70.9805 75.5444 69.5087 75.5659 68.0068C75.5914 58.7445 75.5786 49.4821 75.5769 40.2197C75.5768 40.0804 75.5549 39.9411 75.5335 39.6867C74.4557 39.9967 73.8725 39.273 73.2367 38.6293C72.0883 37.4665 70.9236 36.3197 69.7709 35.161C69.0896 34.4762 68.9901 33.912 69.394 33.0408C69.9815 31.7734 70.5598 30.501 71.1791 29.2491C71.3844 28.8341 71.3183 28.5844 70.9926 28.2721C69.9841 27.3051 69.0051 26.3071 68.0235 25.3123C67.2703 24.5489 67.2152 23.6348 67.8654 22.9844C68.5032 22.3464 69.4623 22.399 70.1966 23.1318C73.4492 26.3777 76.6989 29.6266 79.9457 32.8784C80.6942 33.6284 80.7625 34.5665 79.9527 35.2419C78.8644 36.1495 78.6123 37.2187 78.6201 38.5911C78.6752 48.3032 78.6456 58.0158 78.652 67.7283C78.6536 70.1913 77.8227 72.3636 76.4063 74.337C76.1679 74.6616 75.8973 74.9612 75.5985 75.2313C74.1342 76.5811 72.5641 76.5603 71.1365 75.1425C69.6431 73.6593 68.8303 71.8033 68.3854 69.7823C68.2489 69.1101 68.1846 68.4251 68.1935 67.7392C68.1816 60.2772 68.1801 52.8153 68.1889 45.3532C68.1895 42.8243 66.8921 41.1853 64.5654 40.8768V76.7057H28.6548ZM61.4363 73.6967C61.4363 73.3801 61.4362 73.1493 61.4363 72.9184C61.4379 63.6112 61.4396 54.3039 61.4412 44.9967C61.442 37.5823 61.441 30.1679 61.4383 22.7534C61.4343 19.5056 59.2245 17.3009 55.9968 17.2994C49.6945 17.2964 43.3923 17.2973 37.09 17.3021C33.9944 17.3068 31.7327 19.5291 31.7304 22.6309C31.7175 39.424 31.7116 56.2171 31.7126 73.0103C31.712 73.6051 31.9149 73.7068 32.4484 73.706C41.8308 73.6922 51.2131 73.6891 60.5954 73.6967C60.8496 73.6967 61.1037 73.6967 61.4363 73.6967ZM73.7132 31.0981C73.3553 31.8635 73.0073 32.5821 72.6896 33.3138C72.665 33.3865 72.6576 33.464 72.6681 33.54C72.6786 33.616 72.7066 33.6886 72.75 33.7519C73.4609 34.5052 74.1937 35.2378 74.7862 35.8406L76.7903 34.1553C75.7384 33.1102 74.7672 32.1453 73.7132 31.0981Z" fill="#161616"/>
<path d="M46.5331 79.8498C52.9276 79.8498 59.3222 79.8501 65.7167 79.8507C67.2235 79.8512 67.864 80.562 67.5957 82.0451C67.402 83.0182 67.1537 83.9796 66.852 84.9249C66.673 85.5209 66.2763 85.802 65.5792 85.8008C52.9086 85.7794 40.238 85.7779 27.5674 85.7963C26.9449 85.7971 26.5358 85.5882 26.3787 85.0278C26.0672 83.9167 25.7274 82.8017 25.5617 81.6647C25.3903 80.488 26.0907 79.8512 27.3496 79.8508C33.7441 79.8486 40.1386 79.8482 46.5331 79.8498Z" fill="#161616"/>
<path d="M46.753 37.183C43.6261 37.183 40.4991 37.1827 37.3722 37.182C35.6944 37.1802 34.898 36.3803 34.8964 34.691C34.8926 30.712 34.8926 26.7329 34.8963 22.7539C34.898 21.1129 35.7066 20.2977 37.3344 20.2969C43.5646 20.2937 49.7948 20.2935 56.025 20.2965C57.6934 20.2973 58.5068 21.1045 58.5103 22.7851C58.5186 26.7878 58.5189 30.7905 58.5113 34.7932C58.5085 36.3248 57.6579 37.1768 56.1339 37.1806C53.007 37.1884 49.88 37.1829 46.753 37.183ZM55.3795 34.0451V23.4346H38.0124V34.0451L55.3795 34.0451Z" fill="#161616"/>
<path d="M46.7158 57.6831C46.122 57.6846 45.5409 57.5103 45.046 57.1822C44.551 56.8541 44.1643 56.3869 43.9345 55.8393C43.7047 55.2918 43.6422 54.6886 43.7547 54.1056C43.8673 53.5226 44.1499 52.986 44.5671 52.5633C44.9842 52.1407 45.5171 51.8509 46.0986 51.7306C46.6802 51.6103 47.2843 51.6648 47.8349 51.8872C48.3856 52.1096 48.858 52.49 49.1928 52.9804C49.5275 53.4708 49.7096 54.0494 49.716 54.6431C49.7188 55.0397 49.6433 55.4329 49.494 55.8003C49.3447 56.1678 49.1245 56.5022 48.8458 56.7845C48.5672 57.0668 48.2357 57.2915 47.8702 57.4457C47.5048 57.5998 47.1125 57.6805 46.7158 57.6831Z" fill="#161616"/>
<path d="M46.7254 48.752C46.3282 48.7568 45.934 48.6829 45.5655 48.5345C45.1971 48.3862 44.8617 48.1663 44.5786 47.8877C44.2956 47.6091 44.0706 47.2771 43.9166 46.9111C43.7625 46.545 43.6825 46.1521 43.6812 45.755C43.6798 45.3578 43.7572 44.9644 43.9087 44.5973C44.0603 44.2302 44.283 43.8968 44.5642 43.6162C44.8453 43.3357 45.1792 43.1136 45.5467 42.9627C45.9141 42.8119 46.3078 42.7353 46.705 42.7374C47.502 42.7358 48.267 43.0506 48.8321 43.6125C49.3972 44.1745 49.7161 44.9377 49.7188 45.7345C49.7215 46.5314 49.4077 47.2967 48.8465 47.8625C48.2852 48.4282 47.5224 48.7482 46.7254 48.752L46.7254 48.752Z" fill="#161616"/>
<path d="M46.7332 60.5907C47.3284 60.5985 47.908 60.7824 48.3989 61.1192C48.8898 61.456 49.2699 61.9305 49.4914 62.483C49.7128 63.0354 49.7657 63.6411 49.6434 64.2236C49.521 64.8061 49.2288 65.3393 48.8038 65.756C48.3787 66.1727 47.8397 66.4542 47.2548 66.5651C46.67 66.6759 46.0653 66.6111 45.5172 66.3789C44.9691 66.1466 44.5021 65.7573 44.175 65.26C43.8479 64.7627 43.6754 64.1797 43.6793 63.5845C43.6826 63.1873 43.7643 62.7946 43.9197 62.429C44.0751 62.0634 44.3011 61.7321 44.5848 61.454C44.8685 61.1759 45.2043 60.9564 45.573 60.8083C45.9416 60.6602 46.3359 60.5862 46.7332 60.5907Z" fill="#161616"/>
</svg>
