<svg width="100" height="100" viewBox="0 0 100 100" fill="none" xmlns="http://www.w3.org/2000/svg">
<path d="M98.2457 57.2107C98.2457 56.1831 97.2682 55.5542 96.2115 55.1742V51.0057C96.2115 49.7321 94.3486 47.6434 91.7983 47.1962C88.3612 43.2431 77.6062 42.3232 68.4278 41.9843C59.2628 36.8846 56.5923 35.6335 54.9006 35.6335C54.5035 35.5851 54.1006 35.6225 53.7191 35.7433C53.3377 35.864 52.9866 36.0652 52.6897 36.3332C52.3927 36.6013 52.1567 36.93 51.9977 37.2971C51.8387 37.6642 51.7603 38.0612 51.7679 38.4612C51.7679 39.6585 53.034 40.7669 55.3777 42.3471C52.4303 42.2499 44.6826 41.9949 42.8893 41.947C42.754 41.701 42.6418 41.4429 42.5543 41.176L40.814 35.7623C40.731 35.5033 40.5547 35.2843 40.3194 35.1479C40.084 35.0115 39.8064 34.9674 39.5404 35.0241C39.0947 35.1184 28.6135 37.3507 24.9191 38.7186C23.1779 39.3023 21.5213 40.1132 19.9923 41.1305L19.9063 41.1395C19.9707 40.935 19.9737 40.7161 19.9149 40.5099C19.8561 40.3038 19.7382 40.1193 19.5757 39.9795C16.2155 37.0794 8.46771 36.8543 6.17332 36.8543C5.9437 36.8543 5.71986 36.9263 5.53328 37.0601C5.34669 37.194 5.20675 37.3829 5.13312 37.6004C5.05949 37.8179 5.05589 38.053 5.12281 38.2726C5.18974 38.4923 5.32383 38.6854 5.50622 38.8249L8.02879 40.7528V42.2695C6.25112 43.4451 1.75645 46.696 1.75645 49.514L1.75495 49.8124C1.74673 51.6529 1.73252 54.7333 4.04108 56.4049C5.7671 57.453 7.67278 58.1714 9.66116 58.5235C10.2672 60.2571 11.3546 61.7822 12.796 62.9202C14.2374 64.0582 15.9731 64.7621 17.8 64.9495C19.6269 65.1368 21.4694 64.7999 23.1117 63.9781C24.7541 63.1564 26.1284 61.8838 27.0737 60.3093H69.6985C70.5916 61.613 71.7903 62.6782 73.19 63.4117C74.5897 64.1453 76.1477 64.5248 77.7279 64.5173C79.3082 64.5098 80.8625 64.1153 82.2551 63.3685C83.6477 62.6216 84.8363 61.5451 85.7168 60.2329C98.2374 58.5764 98.2464 58.3558 98.2464 57.2109L98.2457 57.2107ZM18.7913 62.8032C17.3096 62.8034 15.8612 62.3642 14.6291 61.5411C13.3971 60.718 12.4367 59.5481 11.8696 58.1793C11.3025 56.8104 11.154 55.3041 11.4429 53.8509C11.7319 52.3977 12.4453 51.0628 13.493 50.015C14.5406 48.9672 15.8754 48.2536 17.3286 47.9645C18.7818 47.6754 20.2881 47.8237 21.6571 48.3907C23.026 48.9576 24.196 49.9178 25.0192 51.1498C25.8424 52.3817 26.2818 53.8301 26.2818 55.3118C26.2796 57.2978 25.4897 59.2019 24.0855 60.6063C22.6813 62.0107 20.7773 62.8008 18.7913 62.8032ZM77.6799 62.3201C76.1983 62.3201 74.7499 61.8808 73.5179 61.0576C72.286 60.2345 71.3258 59.0645 70.7588 57.6956C70.1918 56.3268 70.0434 54.8205 70.3324 53.3673C70.6215 51.9141 71.335 50.5793 72.3826 49.5316C73.4303 48.4839 74.7651 47.7704 76.2183 47.4814C77.6715 47.1923 79.1778 47.3406 80.5466 47.9076C81.9155 48.4746 83.0855 49.4348 83.9087 50.6667C84.7318 51.8987 85.1712 53.3471 85.1712 54.8287C85.169 56.8149 84.379 58.719 82.9746 60.1235C81.5702 61.5279 79.6661 62.3179 77.6799 62.3201ZM86.8763 57.8583C87.365 56.3909 87.4954 54.8279 87.2566 53.2998C87.0177 51.7717 86.4166 50.323 85.5035 49.0747C84.5903 47.8264 83.3916 46.8148 82.0076 46.1245C80.6236 45.4341 79.0944 45.0851 77.548 45.1065C76.0015 45.1279 74.4826 45.5192 73.1182 46.2476C71.7539 46.976 70.5837 48.0204 69.7054 49.2935C68.8272 50.5666 68.2664 52.0315 68.07 53.5656C67.8736 55.0997 68.0472 56.6585 68.5764 58.1118H28.0633C28.466 56.7794 28.5767 55.3759 28.3881 53.9969C28.1995 52.6179 27.7159 51.2957 26.9703 50.1203C26.2247 48.945 25.2345 47.9442 24.0673 47.186C22.9 46.4278 21.5831 45.93 20.2062 45.7266C18.8292 45.5232 17.4246 45.6189 16.088 46.0073C14.7514 46.3956 13.5142 47.0674 12.4606 47.9769C11.407 48.8864 10.5617 50.0123 9.98245 51.2779C9.40316 52.5436 9.10341 53.9191 9.10362 55.311C9.10362 55.5944 9.12232 55.8734 9.14625 56.1501C7.79774 55.8594 6.50782 55.3437 5.33062 54.6245C3.93585 53.6141 3.94633 51.3324 3.95307 49.8217L3.95381 49.5136C3.95381 48.0807 7.38942 45.2561 9.71153 43.7983C9.86888 43.6993 9.9986 43.5621 10.0886 43.3994C10.1786 43.2367 10.2259 43.0539 10.2261 42.868V40.2093C10.2262 40.0404 10.1873 39.8738 10.1124 39.7225C10.0375 39.5711 9.92876 39.439 9.79451 39.3366L9.61282 39.1975C11.258 39.3245 12.8897 39.5883 14.491 39.9864C14.479 39.9977 14.4663 40.0089 14.4544 40.0216C14.3521 40.1237 14.2708 40.2449 14.2154 40.3783C14.16 40.5118 14.1314 40.6549 14.1313 40.7994V42.7326C14.1312 42.8866 14.1636 43.0389 14.2262 43.1796C14.2888 43.3203 14.3803 43.4463 14.4947 43.5493C14.6096 43.6515 14.7444 43.7288 14.8906 43.7763C15.0368 43.8239 15.1913 43.8405 15.3443 43.8253L20.5323 43.2823C20.7564 43.2563 20.9677 43.1644 21.1395 43.0183C22.5315 42.0459 24.0632 41.2907 25.6821 40.7785C28.5935 39.7001 36.3025 37.977 39.0261 37.3818L40.4612 41.848C40.797 42.8912 41.4282 44.1356 42.532 44.1356C42.9276 44.1364 50.9947 44.3989 56.3217 44.5761C56.6134 44.5853 56.8968 44.4785 57.1099 44.2792C57.3801 44.0302 57.5943 43.7268 57.7386 43.389C57.8828 43.0511 57.9538 42.6865 57.9468 42.3192C57.9099 41.9865 57.7944 41.6673 57.6097 41.3881C57.4251 41.1089 57.1766 40.8776 56.8848 40.7135C54.7729 39.306 54.1221 38.6629 53.9652 38.369C53.9764 38.1267 54.0728 37.8305 54.8992 37.8305C56.211 37.8305 60.2022 39.9193 67.5888 44.0326C67.7407 44.1169 67.9103 44.1643 68.0839 44.171C72.8792 44.343 87.4722 44.8665 90.3191 48.8638C90.4112 48.9931 90.5302 49.101 90.668 49.1799C90.8057 49.2588 90.959 49.3068 91.1171 49.3208C91.6921 49.3796 92.248 49.5603 92.7476 49.851C93.2472 50.1417 93.679 50.5356 94.0143 51.0064V55.9909C94.0143 56.2724 94.1225 56.5431 94.3165 56.747C92.4371 57.0648 89.6707 57.4747 86.8776 57.8583L86.8763 57.8583Z" fill="#8090AB"/>
</svg>
