<svg width="100" height="100" viewBox="0 0 100 100" fill="none" xmlns="http://www.w3.org/2000/svg">
<path d="M50.7799 50.3743C50.683 50.2625 50.5633 50.1728 50.4287 50.1113C50.2941 50.0499 50.1479 50.0181 50 50.0181C49.8521 50.0181 49.7059 50.0499 49.5713 50.1113C49.4367 50.1728 49.317 50.2625 49.2201 50.3743C48.6861 51.0404 44 56.9743 44 59.9993C44.0065 61.5863 44.6415 63.1061 45.766 64.2261C46.8905 65.346 48.4129 65.9748 50 65.9748C51.587 65.9748 53.1094 65.346 54.2339 64.2261C55.3584 63.1061 55.9934 61.5863 55.9999 59.9993C55.9999 56.9743 51.3138 51.0404 50.7798 50.3743H50.7799ZM50 63.9993C49.4747 63.9993 48.9545 63.8959 48.4692 63.695C47.9839 63.494 47.5429 63.1993 47.1714 62.8279C46.8 62.4565 46.5053 62.0155 46.3044 61.5302C46.1034 61.0448 45.9999 60.5247 46 59.9994C46 58.4776 48.208 55.0275 50 52.6343C51.792 55.0272 53.9999 58.4771 53.9999 59.9994C54 60.5247 53.8965 61.0448 53.6956 61.5301C53.4946 62.0155 53.1999 62.4564 52.8285 62.8279C52.4571 63.1993 52.0161 63.4939 51.5308 63.6949C51.0455 63.8959 50.5253 63.9993 50 63.9993Z" fill="#1C1C1C"/>
<path d="M46 67.9995C45.7348 67.9995 45.4804 68.1049 45.2929 68.2924C45.1054 68.4799 45 68.7343 45 68.9995C45 69.2647 45.1054 69.5191 45.2929 69.7066C45.4804 69.8942 45.7348 69.9995 46 69.9995H53.9999C54.2651 69.9995 54.5195 69.8942 54.707 69.7066C54.8945 69.5191 54.9999 69.2647 54.9999 68.9995C54.9999 68.7343 54.8945 68.4799 54.707 68.2924C54.5195 68.1049 54.2651 67.9995 53.9999 67.9995H46Z" fill="#1C1C1C"/>
<path d="M71.7681 36.6995L59.7807 22.358C59.687 22.2458 59.5697 22.1555 59.4371 22.0936C59.3046 22.0318 59.1601 21.9998 59.0138 21.9999H50.8139C50.6782 22 50.544 22.0277 50.4193 22.0813C50.2947 22.135 50.1823 22.2135 50.0889 22.312L30.3451 43.1278L30.8812 38.568L36.6409 33.7681V33.7676C36.7419 33.6834 36.8253 33.5802 36.8864 33.4637C36.9474 33.3473 36.985 33.22 36.9969 33.0891C37.0087 32.9582 36.9947 32.8262 36.9556 32.7007C36.9165 32.5752 36.853 32.4586 36.7688 32.3576C36.6846 32.2566 36.5814 32.1732 36.4649 32.1121C36.3485 32.0511 36.2212 32.0135 36.0903 32.0016C35.9594 31.9898 35.8274 32.0038 35.7019 32.0429C35.5764 32.082 35.4598 32.1455 35.3588 32.2297L31.2209 35.6797L31.8888 29.9999H39.9999C40.2651 29.9999 40.5195 29.8945 40.707 29.707C40.8945 29.5195 40.9999 29.2651 40.9999 28.9999V21C40.9999 20.7348 40.8945 20.4804 40.707 20.2929C40.5195 20.1054 40.2651 20 39.9999 20H30C29.7348 20 29.4804 20.1054 29.2929 20.2929C29.1054 20.4804 29 20.7348 29 21V28.9999C29.0015 29.2418 29.0918 29.4747 29.2536 29.6544C29.4155 29.8341 29.6377 29.9482 29.8781 29.9749L28.0071 45.8833H28.0219C28.0126 45.9219 28.0053 45.9609 28 46.0003V51.0002C28 51.2654 28.1054 51.5198 28.2929 51.7073C28.4804 51.8948 28.7348 52.0002 29 52.0002C29.2652 52.0002 29.5196 51.8948 29.7071 51.7073C29.8946 51.5198 30 51.2654 30 51.0002V46.4003L51.2421 24.0005H58.542L70.0002 37.7089V62.0001C69.9989 62.1323 70.0238 62.2634 70.0734 62.3858C70.1231 62.5083 70.1965 62.6197 70.2895 62.7137C70.3825 62.8076 70.4932 62.8821 70.6152 62.933C70.7371 62.9839 70.868 63.0101 71.0002 63.0101C71.1323 63.0101 71.2632 62.9839 71.3851 62.933C71.5071 62.8821 71.6178 62.8076 71.7108 62.7137C71.8038 62.6197 71.8772 62.5083 71.9269 62.3858C71.9765 62.2634 72.0014 62.1323 72.0001 62.0001V37.3466C72.0015 37.1106 71.9193 36.8818 71.768 36.7007L71.7681 36.6995ZM39.0004 22.0002V24.0002H38.0004C37.7352 24.0002 37.4809 24.1056 37.2933 24.2931C37.1058 24.4806 37.0004 24.735 37.0004 25.0002C37.0004 25.2654 37.1058 25.5198 37.2933 25.7073C37.4809 25.8948 37.7352 26.0002 38.0004 26.0002H39.0004V28.0002H31.0005V26.0002H34.0004C34.2657 26.0002 34.52 25.8948 34.7075 25.7073C34.8951 25.5198 35.0004 25.2654 35.0004 25.0002C35.0004 24.735 34.8951 24.4806 34.7075 24.2931C34.52 24.1056 34.2657 24.0002 34.0004 24.0002H31.0005V22.0002H39.0004Z" fill="#1C1C1C"/>
<path d="M48.3078 38.9486C48.1783 38.9167 48.0436 38.911 47.9118 38.932C47.78 38.9529 47.6537 39 47.5404 39.0705C47.4271 39.1411 47.329 39.2336 47.252 39.3426C47.175 39.4516 47.1206 39.5749 47.0921 39.7053C47.0635 39.8356 47.0613 39.9704 47.0856 40.1016C47.1099 40.2329 47.1603 40.3579 47.2337 40.4693C47.3071 40.5808 47.4021 40.6764 47.513 40.7506C47.624 40.8248 47.7487 40.876 47.8797 40.9012L66.7869 45.0431C66.8571 45.0587 66.9288 45.0664 67.0007 45.0663C67.1321 45.0663 67.2621 45.0405 67.3834 44.9902C67.5048 44.94 67.615 44.8663 67.7079 44.7735C67.8007 44.6806 67.8744 44.5704 67.9246 44.4491C67.9749 44.3278 68.0008 44.1977 68.0007 44.0664V38.6544C68.0015 38.4145 67.9159 38.1824 67.7596 38.0004L57.7459 26.3491C57.652 26.2397 57.5356 26.1519 57.4046 26.0916C57.2737 26.0314 57.1312 26.0001 56.987 26H53.187C53.0208 26.0001 52.8572 26.0417 52.711 26.121C52.5649 26.2003 52.4408 26.3147 52.35 26.454L46.209 35.878C46.0642 36.1002 46.0137 36.3709 46.0684 36.6304C46.1232 36.89 46.2788 37.1171 46.501 37.2619C46.7233 37.4067 46.9939 37.4573 47.2535 37.4025C47.513 37.3478 47.7401 37.1921 47.8849 36.9699L53.7299 28H56.5299L66.0008 39.0249V42.8248L48.3078 38.9486Z" fill="#1C1C1C"/>
<path d="M70.9994 65.0004C70.7342 65.0004 70.4798 65.1057 70.2923 65.2933C70.1048 65.4808 69.9994 65.7352 69.9994 66.0004V75.0003C69.9994 75.3942 69.9218 75.7844 69.7711 76.1483C69.6203 76.5123 69.3994 76.843 69.1208 77.1216C68.8422 77.4002 68.5115 77.6211 68.1475 77.7719C67.7836 77.9226 67.3935 78.0002 66.9995 78.0002H32.9999C32.6059 78.0002 32.2158 77.9227 31.8518 77.7719C31.4879 77.6212 31.1571 77.4002 30.8785 77.1216C30.6 76.8431 30.379 76.5123 30.2283 76.1483C30.0775 75.7844 30 75.3943 30 75.0003V55.0005C30 54.7353 29.8946 54.4809 29.7071 54.2934C29.5196 54.1058 29.2652 54.0005 29 54.0005C28.7348 54.0005 28.4804 54.1058 28.2929 54.2934C28.1054 54.4809 28 54.7353 28 55.0005V75.0003C28.0014 76.3259 28.5286 77.5968 29.466 78.5342C30.4034 79.4715 31.6743 79.9988 32.9999 80.0002H66.9996C68.3252 79.9988 69.5961 79.4715 70.5335 78.5342C71.4708 77.5968 71.998 76.3259 71.9995 75.0003V66.0004C71.9995 65.8691 71.9736 65.739 71.9234 65.6177C71.8731 65.4963 71.7995 65.3861 71.7066 65.2932C71.6138 65.2004 71.5035 65.1267 71.3822 65.0765C71.2608 65.0262 71.1308 65.0004 70.9995 65.0004H70.9994Z" fill="#1C1C1C"/>
<path d="M35.0001 69.0003C34.7349 69.0003 34.4806 69.1057 34.293 69.2932C34.1055 69.4808 34.0001 69.7351 34.0001 70.0003V73.0003C34.0001 73.2655 34.1055 73.5199 34.293 73.7074C34.4805 73.8949 34.7349 74.0003 35.0001 74.0003H58.9998C59.265 74.0003 59.5194 73.8949 59.707 73.7074L65.7069 67.7075C65.8944 67.5199 65.9998 67.2655 65.9998 67.0003V49.0006C65.9999 48.7727 65.9221 48.5516 65.7794 48.374C65.6367 48.1964 65.4375 48.0728 65.215 48.0238L42.4861 43.0238C42.3379 42.9912 42.1842 42.9928 42.0367 43.0285C41.8891 43.0641 41.7517 43.1329 41.6347 43.2296L34.3629 49.2296C34.2494 49.3234 34.158 49.4412 34.0953 49.5745C34.0325 49.7077 34 49.8532 34 50.0005V66.0004C34 66.2656 34.1054 66.52 34.2929 66.7075C34.4804 66.895 34.7348 67.0004 35 67.0004C35.2652 67.0004 35.5196 66.895 35.7071 66.7075C35.8946 66.52 36 66.2656 36 66.0004V50.4725L42.532 45.0815L63.9992 49.8007V66.5868L58.5854 72.0005H35.9994V70.0005C35.9994 69.8692 35.9735 69.7391 35.9233 69.6178C35.873 69.4965 35.7994 69.3863 35.7065 69.2934C35.6137 69.2006 35.5034 69.1269 35.3821 69.0767C35.2608 69.0264 35.1307 69.0006 34.9994 69.0006L35.0001 69.0003Z" fill="#1C1C1C"/>
</svg>
