<svg width="100" height="100" viewBox="0 0 100 100" fill="none" xmlns="http://www.w3.org/2000/svg">
<path d="M41.4369 37.6641V35.1452C39.5917 35.1452 37.8407 35.1225 36.0906 35.1521C34.5837 35.1776 33.4431 34.6491 33.4482 33.0113C33.4533 31.3673 34.6262 30.8803 36.1118 30.8848C41.1664 30.9001 46.221 30.9022 51.2757 30.8911C52.7667 30.8885 53.9126 31.3845 53.8928 33.0498C53.8728 34.723 52.6921 35.1634 51.2164 35.1425C49.5172 35.1184 47.8174 35.1369 45.9619 35.1369V37.6804C48.8236 37.6804 51.6683 37.6801 54.513 37.6805C55.6742 37.6806 56.8354 37.6815 57.9966 37.683C61.6524 37.6864 61.649 37.6878 63.0776 41.0986C63.8911 43.0405 64.7178 44.9769 65.6207 47.1098C70.6033 45.3232 75.4674 43.5808 80.3301 41.835C82.9641 40.8893 85.5592 39.804 88.2496 39.0642C89.1546 38.8153 90.6097 39.114 91.2624 39.7383C92.2524 40.6851 91.5516 41.8372 90.663 42.7591C82.6539 51.0678 74.6911 59.4216 66.6165 67.6659C65.8231 68.476 64.3752 69.0379 63.226 69.0469C50.7265 69.144 38.226 69.111 25.7258 69.1051C22.8102 69.1037 22.3063 68.5822 22.3023 65.6133C22.2963 61.044 22.2958 56.4749 22.3008 51.9062C17.9398 50.2003 13.7001 48.5434 9.46152 46.8834C6.03994 45.5434 5.17945 43.5172 6.57348 40.0947C7.0885 38.8303 7.57009 37.551 8.12371 36.3037C9.17443 33.9367 11.2007 33.0256 13.6526 33.7844C14.1737 33.9456 14.6787 34.1584 15.1926 34.3433C18.2713 35.451 21.2879 37.2199 24.4433 37.5179C29.9858 38.0413 35.6135 37.6641 41.4369 37.6641ZM80.8891 46.6808C80.7843 46.5604 80.6796 46.4399 80.5749 46.3194C75.772 48.0478 70.9688 49.7753 66.1653 51.5021C63.7517 52.3664 63.0126 52.0428 62.0431 49.7404C61.2223 47.7913 60.3187 45.8708 59.6178 43.8793C59.1094 42.4347 58.3242 41.9601 56.7708 41.9732C47.4185 42.0525 38.0652 42.0105 28.7123 42.0176C28.0562 42.0181 27.4001 42.0868 26.6791 42.1274V64.7856C27.5311 64.7856 28.263 64.7855 28.9949 64.7856C39.7815 64.7871 50.5682 64.7602 61.3545 64.8218C62.9244 64.8307 64.0348 64.3842 65.0617 63.1929C66.6188 61.3866 68.3548 59.7347 70.0098 58.0124C73.638 54.2368 77.2644 50.4596 80.8891 46.6808ZM22.2104 47.2533C22.2104 45.4213 22.2699 43.9999 22.1754 42.5888C22.1456 42.1453 21.7993 41.4866 21.4322 41.3395C18.4176 40.1311 15.3639 39.0201 12.1492 37.8148C11.4754 39.4699 10.8763 40.9415 10.2224 42.5478C14.2419 44.1255 18.0188 45.608 22.2104 47.2533Z" fill="#E7D828"/>
<path d="M91.7448 45.4642C92.3875 46.7108 93.7243 48.2128 94.0272 49.5372C94.2073 50.3243 93.6871 51.5621 93.0609 52.1452C92.6114 52.5637 91.1626 52.5701 90.7035 52.1566C90.0709 51.5868 89.5299 50.3524 89.7057 49.5734C90.0056 48.2445 91.1039 46.7161 91.7448 45.4642Z" fill="#E7D828"/>
</svg>
