<svg width="100" height="100" viewBox="0 0 100 100" fill="none" xmlns="http://www.w3.org/2000/svg">
<path d="M54.9775 80H21.5379C20.8652 79.9987 20.2205 79.7308 19.7448 79.2552C19.2692 78.7795 19.0013 78.1348 19 77.4621V22.5379C19.0013 21.8652 19.2692 21.2205 19.7448 20.7448C20.2205 20.2692 20.8652 20.0013 21.5379 20H54.9858C55.6585 20.0013 56.3032 20.2692 56.7789 20.7448C57.2545 21.2205 57.5224 21.8652 57.5237 22.5379V77.4621C57.5207 78.1356 57.2513 78.7805 56.7743 79.256C56.2974 79.7315 55.6517 79.999 54.9782 80H54.9775ZM21.5379 22.2871C21.503 22.2869 21.4684 22.2936 21.4362 22.3068C21.4039 22.3201 21.3746 22.3396 21.3499 22.3643C21.3252 22.389 21.3057 22.4183 21.2924 22.4506C21.2792 22.4828 21.2725 22.5174 21.2727 22.5523V77.4766C21.2725 77.5115 21.2792 77.5461 21.2924 77.5783C21.3057 77.6106 21.3252 77.6399 21.3499 77.6646C21.3746 77.6892 21.4039 77.7088 21.4362 77.722C21.4684 77.7352 21.503 77.7419 21.5379 77.7417H54.9858C55.0207 77.7419 55.0553 77.7352 55.0875 77.722C55.1198 77.7088 55.1491 77.6892 55.1738 77.6646C55.1985 77.6399 55.218 77.6106 55.2313 77.5783C55.2445 77.5461 55.2512 77.5115 55.251 77.4766V22.5523C55.2512 22.5174 55.2445 22.4828 55.2313 22.4505C55.218 22.4183 55.1985 22.3889 55.1738 22.3643C55.1492 22.3396 55.1198 22.3201 55.0876 22.3068C55.0553 22.2936 55.0207 22.2869 54.9858 22.2871H21.5379Z" fill="#EBA350"/>
<path d="M50.9395 46.8181H26V27H50.9395V46.8181ZM28.2733 44.5454H48.6677V29.2725H28.2733V44.5454Z" fill="#EBA350"/>
<path d="M72.4761 20.4922L79.8939 33.6607L77.9139 34.776L70.4961 21.6075L72.4761 20.4922Z" fill="#EBA350"/>
<path d="M71.9312 74.1359C69.5868 74.1345 67.3388 73.2026 65.6811 71.5449C64.0234 69.8872 63.0915 67.6392 63.0902 65.2949V52.416C63.0966 51.9624 63.0127 51.512 62.8435 51.0911C62.6742 50.6702 62.423 50.2872 62.1043 49.9643C61.7857 49.6414 61.406 49.3851 60.9874 49.2103C60.5687 49.0355 60.1195 48.9457 59.6659 48.9462H56.3477V46.6735H59.6659C60.4175 46.6719 61.1619 46.8206 61.8553 47.1107C62.5487 47.4008 63.1771 47.8265 63.7038 48.3628C64.2334 48.8975 64.6526 49.5313 64.9373 50.228C65.222 50.9247 65.3666 51.6707 65.363 52.4234V65.3024C65.3651 67.0437 66.0577 68.7132 67.2891 69.9445C68.5204 71.1758 70.1898 71.8685 71.9312 71.8707C73.6963 71.8752 75.3921 71.1838 76.6509 69.9463C77.2576 69.3357 77.7374 68.6109 78.0625 67.8138C78.3876 67.0167 78.5515 66.1632 78.5449 65.3024V36.5977H80.8176V65.2955C80.8248 66.4541 80.603 67.6027 80.1648 68.6753C79.7267 69.7479 79.0809 70.7233 78.2645 71.5455C76.5754 73.2072 74.3005 74.1378 71.9311 74.1364L71.9312 74.1359Z" fill="#EBA350"/>
<path d="M75.4995 41.9304C74.588 41.9306 73.6918 41.6963 72.8972 41.2498C72.1025 40.8034 71.4361 40.16 70.9621 39.3814C70.4881 38.6029 70.2224 37.7154 70.1907 36.8045C70.159 35.8935 70.3623 34.9898 70.781 34.1801C71.1997 33.3705 71.8198 32.6823 72.5815 32.1817C73.3432 31.6811 74.221 31.385 75.1303 31.3218C76.0396 31.2587 76.9498 31.4307 77.7734 31.8212C78.597 32.2117 79.3062 32.8076 79.8328 33.5516C80.0471 33.8487 80.2276 34.1689 80.3707 34.5062C80.7255 35.3139 80.8728 36.1975 80.7993 37.0767C80.7259 37.9558 80.4338 38.8027 79.9499 39.5403C79.4659 40.2779 78.8053 40.8829 78.0281 41.3003C77.2508 41.7178 76.3816 41.9344 75.4994 41.9305L75.4995 41.9304ZM75.4995 33.5818C74.899 33.5832 74.3124 33.7627 73.8137 34.0974C73.3151 34.4321 72.9269 34.9071 72.6981 35.4623C72.4693 36.0176 72.4102 36.6282 72.5282 37.217C72.6463 37.8058 72.9362 38.3464 73.3614 38.7706C73.7865 39.1947 74.3279 39.4833 74.917 39.5999C75.5061 39.7166 76.1165 39.656 76.6712 39.4258C77.2259 39.1957 77.7 38.8063 78.0335 38.3068C78.3669 37.8074 78.5449 37.2203 78.5449 36.6198C78.5397 36.2027 78.4522 35.7908 78.2873 35.4076C78.2013 35.2179 78.1 35.0355 77.9843 34.8622C77.7011 34.4673 77.3281 34.1453 76.8961 33.9227C76.464 33.7001 75.9853 33.5832 75.4993 33.5818H75.4995Z" fill="#EBA350"/>
<path d="M38.2417 72.6732C36.1989 72.6715 34.2402 71.8592 32.7956 70.4147C31.3511 68.9702 30.5388 67.0115 30.5371 64.9686C30.5371 58.9458 37.3402 54.5216 37.6282 54.3322L38.2797 53.9155L38.9085 54.3701C39.1964 54.5822 45.9465 59.5368 45.9465 64.9687C45.9448 67.0116 45.1325 68.9703 43.688 70.4148C42.2434 71.8593 40.2848 72.6716 38.2419 72.6733L38.2417 72.6732ZM38.2114 56.7035C36.6584 57.8702 32.8099 61.143 32.8099 64.9688C32.8099 66.4094 33.3822 67.7911 34.4009 68.8097C35.4195 69.8284 36.8011 70.4007 38.2418 70.4007C39.6824 70.4007 41.064 69.8284 42.0827 68.8097C43.1013 67.7911 43.6736 66.4094 43.6736 64.9688C43.6736 61.8021 40.1735 58.302 38.2114 56.7035Z" fill="#EBA350"/>
</svg>
