<svg width="100" height="100" viewBox="0 0 100 100" fill="none" xmlns="http://www.w3.org/2000/svg">
<path d="M18 60C23.5228 60 28 55.5228 28 50C28 44.4772 23.5228 40 18 40C12.4772 40 8 44.4772 8 50C8 55.5228 12.4772 60 18 60Z" stroke="black" stroke-width="2"/>
<path d="M50 60C55.5228 60 60 55.5228 60 50C60 44.4772 55.5228 40 50 40C44.4772 40 40 44.4772 40 50C40 55.5228 44.4772 60 50 60Z" stroke="black" stroke-width="2"/>
<path d="M82 60C87.5228 60 92 55.5228 92 50C92 44.4772 87.5228 40 82 40C76.4772 40 72 44.4772 72 50C72 55.5228 76.4772 60 82 60Z" stroke="black" stroke-width="2"/>
</svg>
