<svg width="100" height="100" viewBox="0 0 100 100" fill="none" xmlns="http://www.w3.org/2000/svg">
<path d="M15.5989 50.5388C16.1653 49.4416 16.6788 49.2432 17.8165 49.7302C19.5177 50.4585 21.2189 50.4733 22.8817 49.6716C25.6499 48.3368 28.3818 48.3489 31.1482 49.684C31.9329 50.0775 32.7979 50.2844 33.6757 50.2885C34.5535 50.2926 35.4205 50.0939 36.2088 49.7078C37.6464 49.0413 39.129 48.6172 40.8245 48.6573C40.6317 48.4087 40.4924 48.2467 40.3728 48.0713C40.187 47.8158 40.099 47.5023 40.1246 47.1875C40.1502 46.8727 40.2877 46.5775 40.5122 46.3554C40.9675 45.9091 41.6759 45.78 42.161 46.2239C43.2308 47.2031 44.261 48.2319 45.2377 49.3039C45.6796 49.789 45.525 50.4948 44.9821 51.0546C44.1718 51.89 43.3482 52.7123 42.5111 53.5215C41.8529 54.1575 41.1043 54.1967 40.5359 53.6654C39.9719 53.1383 39.9816 52.407 40.5623 51.6914C40.6281 51.6102 40.6954 51.5301 40.8189 51.3808C39.7706 51.2905 38.7178 51.4914 37.7766 51.9613C35.8357 52.8869 33.8229 53.2334 31.7123 52.7006C31.1038 52.5562 30.5119 52.3493 29.946 52.0832C27.9807 51.1208 26.0492 51.1305 24.0751 52.0754C21.7793 53.1743 19.4113 53.2692 17.0545 52.2916C16.5129 52.067 16.0812 51.5779 15.5989 51.2106L15.5989 50.5388Z" fill="#2C83C5"/>
<path d="M15.5989 61.2871C16.1684 60.2419 16.7313 60.0488 17.8513 60.526C19.5047 61.2305 21.1708 61.267 22.7919 60.4888C25.6029 59.1395 28.3767 59.1311 31.1907 60.4832C32.8576 61.2842 34.5798 61.2598 36.2517 60.4723C37.6684 59.7929 39.2182 59.4361 40.7894 59.4278C40.5907 59.1553 40.4542 58.9867 40.338 58.8051C40.166 58.5542 40.0869 58.2511 40.1144 57.9481C40.1419 57.645 40.2744 57.3611 40.4888 57.1453C40.9367 56.6914 41.6514 56.5502 42.1327 56.9886C43.2052 57.9655 44.2361 58.994 45.217 60.0629C45.6584 60.5438 45.5696 61.1881 45.1293 61.658C44.2266 62.6214 43.2945 63.5569 42.3329 64.4644C42.0863 64.6995 41.7582 64.8299 41.4174 64.8281C41.0766 64.8263 40.7498 64.6926 40.5057 64.455C40.0067 63.9714 39.9769 63.2576 40.433 62.6292C40.5336 62.4904 40.6448 62.3593 40.8124 62.147C39.7841 62.084 38.7567 62.2833 37.8266 62.7262C36.3483 63.4371 34.7981 63.8865 33.1564 63.6843C32.1486 63.5602 31.0942 63.3767 30.1884 62.9493C28.0221 61.9271 25.969 61.9423 23.8047 62.9676C21.5515 64.0351 19.2005 64.0127 16.9096 63.0168C16.4132 62.801 16.0327 62.3185 15.5989 61.9588L15.5989 61.2871Z" fill="#2C83C5"/>
<path d="M15.5989 39.6561C16.1762 38.6062 16.7282 38.4163 17.8499 38.8945C19.5022 39.5989 21.1684 39.6383 22.7877 38.8593C25.6217 37.496 28.4125 37.5111 31.2448 38.8725C32.8635 39.6505 34.5493 39.6285 36.1771 38.8699C37.6135 38.1828 39.1815 37.814 40.7737 37.7888C40.6018 37.5331 40.471 37.3601 40.3631 37.1739C40.2146 36.9206 40.1558 36.6246 40.1963 36.3338C40.2368 36.043 40.3742 35.7743 40.5863 35.5712C41.01 35.1599 41.7495 35.0143 42.1828 35.4132C43.2494 36.3949 44.2818 37.4198 45.2574 38.4916C45.6761 38.9516 45.5184 39.654 45.0027 40.1885C44.2103 41.0098 43.4031 41.8166 42.5809 42.6089C41.9164 43.2502 41.1837 43.2898 40.6083 42.7572C40.063 42.2526 40.0525 41.5652 40.5782 40.8338C40.6386 40.7497 40.696 40.6634 40.7948 40.5201C39.4764 40.4314 38.3656 40.8419 37.257 41.332C34.9034 42.3724 32.5364 42.3504 30.1634 41.352C29.4713 41.0431 28.7533 40.796 28.0177 40.6136C26.5783 40.291 25.2334 40.6888 23.9271 41.2956C21.8445 42.2629 19.6994 42.346 17.5242 41.647C16.7593 41.4012 15.9831 41.1426 15.5989 40.3279L15.5989 39.6561Z" fill="#2C83C5"/>
<path d="M48.7906 25.5824H43.281C43.281 26.8404 43.2813 28.0658 43.2808 29.2912C43.2807 29.5151 43.2917 29.7401 43.274 29.9626C43.2114 30.7486 42.6638 31.3049 41.9555 31.3154C41.2227 31.3262 40.6236 30.7525 40.6048 29.9315C40.5741 28.5887 40.5944 27.2448 40.5916 25.9014C40.5914 25.8143 40.5774 25.7271 40.5659 25.5952H35.0839C35.0839 26.4692 35.084 27.3351 35.0839 28.2009C35.0838 28.7383 35.0952 29.2759 35.0807 29.8129C35.0568 30.6961 34.5286 31.2938 33.774 31.3154C32.9965 31.3376 32.4124 30.7213 32.4014 29.8128C32.3845 28.4261 32.3969 27.039 32.3969 25.6006H24.1992C24.1992 26.1647 24.1996 26.7383 24.1991 27.3119C24.1982 28.4986 24.2197 29.6859 24.188 30.8718C24.166 31.6934 23.5659 32.2696 22.8359 32.2554C22.6608 32.2524 22.488 32.2151 22.3273 32.1453C22.1667 32.0756 22.0213 31.9749 21.8996 31.849C21.7779 31.723 21.6822 31.5744 21.618 31.4115C21.5538 31.2486 21.5224 31.0746 21.5254 30.8995C21.4981 28.6832 21.4977 26.4667 21.5241 24.2499C21.5336 23.4281 22.0642 22.934 22.8804 22.8684C23.0808 22.8524 23.2833 22.8621 23.4848 22.8621C43.125 22.8619 62.7652 22.8619 82.4054 22.862C84.013 22.862 84.4009 23.2447 84.4009 24.8313C84.4011 41.6242 84.4011 58.4171 84.4009 75.2099C84.4009 76.7246 83.9921 77.1406 82.5013 77.1406C62.794 77.1409 43.0866 77.1409 23.3792 77.1405C21.9314 77.1405 21.5123 76.7139 21.5118 75.2444C21.5112 73.2292 21.499 71.214 21.5188 69.199C21.5273 68.3275 22.1105 67.7373 22.8713 67.7469C23.6298 67.7564 24.1618 68.3499 24.1976 69.2301C24.204 69.3866 24.1991 69.5435 24.1992 69.7003C24.1992 71.0437 24.1992 72.3871 24.1992 73.7306V74.419H32.3963C32.3963 73.4959 32.3961 72.5657 32.3964 71.6355C32.3965 71.1205 32.3807 70.6049 32.4019 70.0907C32.4383 69.2081 32.9855 68.6517 33.7714 68.6677C34.5254 68.683 35.0611 69.2304 35.0754 70.0853C35.0994 71.5138 35.0819 72.943 35.0819 74.4126H40.5934C40.5934 73.1635 40.5931 71.9382 40.5938 70.713C40.5939 70.4667 40.5813 70.219 40.6036 69.9745C40.6765 69.1759 41.2135 68.6616 41.9506 68.6677C42.6835 68.6737 43.2307 69.1948 43.2681 70.0006C43.3054 70.805 43.2798 71.6123 43.2808 72.4183C43.2817 73.0653 43.281 73.7123 43.281 74.4063H81.6736V25.5815H76.2039V26.3586C76.2039 38.8301 76.2028 51.3016 76.2007 63.7731C76.2111 64.0853 76.1832 64.3976 76.1176 64.703C75.9608 65.3214 75.5011 65.6233 74.8914 65.6708C74.5972 65.6828 74.3079 65.5925 74.0728 65.4154C73.8376 65.2382 73.6711 64.985 73.6015 64.6989C73.5363 64.3934 73.5088 64.0811 73.5195 63.7689C73.5158 51.3198 73.5147 38.8707 73.5163 26.4215V25.5891H67.8724V26.4045C67.8724 40.7344 67.8721 55.0643 67.8715 69.3943C67.8822 69.6626 67.8731 69.9313 67.8442 70.1983C67.8123 70.5256 67.6576 70.8288 67.4111 71.0466C67.1647 71.2645 66.8448 71.3809 66.516 71.3725C66.1875 71.3721 65.8711 71.2487 65.629 71.0267C65.387 70.8046 65.2369 70.5 65.2083 70.1729C65.1827 69.9055 65.1751 69.6367 65.1856 69.3683C65.1847 55.0608 65.1845 40.7533 65.1848 26.4457V25.5976H59.6753V26.3803C59.6753 38.8294 59.6746 51.2785 59.6734 63.7276C59.6851 64.018 59.6682 64.3088 59.623 64.5959C59.5694 64.8973 59.412 65.1705 59.178 65.3679C58.9441 65.5654 58.6483 65.6747 58.3421 65.6769C58.0359 65.6791 57.7387 65.5741 57.5019 65.38C57.2651 65.1859 57.1037 64.9151 57.0458 64.6145C56.9972 64.3281 56.9785 64.0375 56.9898 63.7472C56.9874 51.2981 56.9866 38.8489 56.9877 26.3998V25.5814H51.4782V26.4262C51.4782 40.7561 51.4774 55.086 51.4758 69.416C51.488 69.7285 51.4669 70.0414 51.4128 70.3494C51.3477 70.64 51.1854 70.8998 50.9528 71.0858C50.7202 71.2719 50.4311 71.3731 50.1332 71.3729C49.8353 71.3726 49.5464 71.2709 49.3141 71.0845C49.0818 70.898 48.92 70.638 48.8553 70.3473C48.8013 70.0392 48.7803 69.7263 48.7929 69.4138C48.7902 55.0836 48.7894 40.7534 48.7906 26.4232V25.5824Z" fill="#2C83C5"/>
<path d="M59.6661 70.0891C59.653 70.4398 59.5021 70.7712 59.2462 71.0115C58.9903 71.2517 58.65 71.3814 58.2991 71.3725C57.9482 71.3635 57.615 71.2166 57.3717 70.9637C57.1284 70.7107 56.9946 70.372 56.9994 70.0211C57.0037 69.8459 57.0424 69.6732 57.1135 69.513C57.1845 69.3528 57.2865 69.2081 57.4135 69.0873C57.5405 68.9665 57.69 68.872 57.8536 68.809C58.0172 68.746 58.1916 68.7159 58.3668 68.7204C58.5421 68.7249 58.7147 68.7638 58.8748 68.8351C59.035 68.9063 59.1796 69.0084 59.3002 69.1355C59.4209 69.2626 59.5153 69.4123 59.5781 69.5759C59.6409 69.7395 59.6708 69.9139 59.6661 70.0891Z" fill="#2C83C5"/>
<path d="M76.1943 70.0528C76.1906 70.4037 76.0487 70.7389 75.7995 70.9859C75.5502 71.2329 75.2137 71.3718 74.8627 71.3724C74.5118 71.373 74.1748 71.2353 73.9247 70.9892C73.6746 70.743 73.5315 70.4083 73.5266 70.0574C73.5261 69.8821 73.5601 69.7085 73.6267 69.5463C73.6933 69.3842 73.7913 69.2368 73.915 69.1125C74.0386 68.9883 74.1856 68.8896 74.3474 68.8222C74.5093 68.7548 74.6828 68.7199 74.8581 68.7196C75.0335 68.7193 75.2071 68.7536 75.3692 68.8204C75.5313 68.8873 75.6786 68.9854 75.8027 69.1092C75.9268 69.2331 76.0252 69.3801 76.0924 69.542C76.1596 69.7039 76.1942 69.8775 76.1943 70.0528Z" fill="#2C83C5"/>
</svg>
