<svg width="100" height="100" viewBox="0 0 100 100" fill="none" xmlns="http://www.w3.org/2000/svg">
<path d="M67.9682 62.9395C67.8766 62.7568 67.8202 62.6345 67.7557 62.5167C66.3749 59.9939 67.1358 58.2397 69.2466 56.3217C73.687 52.2868 77.8157 47.909 82.0718 43.6725C65.9214 27.2897 35.6384 26.1296 17.6937 43.6559C20.4838 46.4077 23.2732 49.1591 26.0617 51.9099C26.6866 52.5267 27.2268 53.2648 27.9399 53.7505C31.6759 56.2945 31.8889 60.5841 33.3245 64.0914C26.4458 57.2088 19.5117 50.2708 12.5222 43.2773C31.0849 22.0693 67.3166 20.9888 87.4779 43.4029C80.9931 49.8966 74.5121 56.3867 67.9682 62.9395Z" fill="#57A926"/>
<path d="M40.0175 47.6011C39.8462 47.7187 39.8138 47.7591 39.7771 47.7635C37.0248 48.0922 37.0196 48.0909 36.4118 50.9239C35.7557 53.9819 35.9145 56.9535 37.1255 59.8894C38.5564 63.3133 39.2376 67.0037 39.1233 70.7127C39.1002 71.4453 38.9963 72.1753 38.9214 72.9979H35.9761C35.7048 70.2148 35.5222 67.4751 35.1363 64.7645C34.9568 63.5039 34.4597 62.268 33.973 61.0754C32.4685 57.3889 32.2931 53.635 33.2302 49.798C33.3717 49.2187 33.5132 48.6394 33.6845 47.9378C33.0403 47.8736 32.4697 47.8167 31.709 47.7408C33.0811 44.3314 34.4142 41.019 35.8915 37.3483C37.3702 41.0227 38.7006 44.3287 40.0175 47.6011Z" fill="#57A926"/>
<path d="M66.9607 73.0202H64.0947C63.7308 69.9514 63.425 66.9952 63.0055 64.0551C62.8707 63.1096 62.5084 62.1758 62.1266 61.2899C60.3849 57.2489 60.3207 53.1374 61.4938 48.954C61.5799 48.6468 61.6324 48.3301 61.7167 47.9437C61.4038 47.9025 61.1419 47.854 60.8779 47.8372C60.6061 47.8199 60.3325 47.8333 59.7305 47.8333C61.1411 44.3185 62.4757 40.9931 63.9416 37.3406C65.4157 41.0111 66.7488 44.3305 68.0987 47.6916C65.0504 48.0989 65.0496 48.0987 64.4224 51.0998C63.7916 54.1175 63.9886 57.0457 65.1792 59.9268C66.662 63.4801 67.3343 67.3191 67.1471 71.1646C67.119 71.7557 67.0303 72.344 66.9607 73.0202Z" fill="#57A926"/>
<path d="M54.1035 47.7304C51.1153 47.9964 51.1397 48.0021 50.4847 50.7598C49.7465 53.868 49.9176 56.8776 51.1313 59.8593C52.8309 64.0347 53.5144 68.3703 52.9364 72.9845H49.6223C49.6223 70.9878 49.8113 68.995 49.5687 67.0562C49.3371 65.13 48.853 63.2427 48.1287 61.4429C46.4154 57.2786 46.2701 53.1078 47.4954 48.8317C47.5708 48.5685 47.6243 48.299 47.7126 47.9294C47.077 47.8689 46.4969 47.8137 45.7344 47.7412C47.0996 44.3439 48.4333 41.0249 49.9068 37.3583C51.3712 40.9775 52.71 44.2863 54.1035 47.7304Z" fill="#57A926"/>
<path d="M52.2617 56.7016C54.5636 57.4439 56.8702 58.1726 59.1612 58.9472C59.4485 59.079 59.6728 59.3181 59.786 59.6132C60.4133 61.2883 60.9944 62.9807 61.7375 65.082C60.6925 64.3785 60.0378 63.8263 59.2919 63.4593C57.8064 62.7286 56.3093 61.9814 54.742 61.4711C53.7275 61.1408 53.0474 60.7514 52.7844 59.6683C52.5806 58.8291 52.2098 58.0304 51.9133 57.2138C52.0294 57.043 52.1455 56.8723 52.2617 56.7016Z" fill="#57A926"/>
<path d="M40.0258 63.5052C39.6727 62.3617 39.3085 61.1822 38.8506 59.6992C40.9156 58.8792 42.9649 58.0655 45.1263 57.2072C45.536 58.6794 45.8533 59.8197 46.1617 60.9279C44.1342 61.7795 42.1543 62.6112 40.0258 63.5052Z" fill="#57A926"/>
</svg>
