<svg width="100" height="100" viewBox="0 0 100 100" fill="none" xmlns="http://www.w3.org/2000/svg">
<path d="M75.7621 30H74.688C72.8944 30.002 71.1749 30.7154 69.9067 31.9836C68.6385 33.2519 67.9251 34.9714 67.9231 36.7649H70.5585C70.5597 35.67 70.9951 34.6204 71.7693 33.8462C72.5435 33.072 73.5931 32.6365 74.688 32.6353H75.7621C77.8411 32.6353 79.835 33.4612 81.3051 34.9313C82.7752 36.4014 83.6011 38.3953 83.6011 40.4743C83.6011 42.5534 82.7752 44.5473 81.3051 46.0174C79.835 47.4875 77.8411 48.3134 75.7621 48.3134H13.7637V50.9487H75.7621C78.54 50.9487 81.2042 49.8452 83.1686 47.8808C85.1329 45.9165 86.2364 43.2523 86.2364 40.4743C86.2364 37.6964 85.1329 35.0322 83.1686 33.0679C81.2042 31.1035 78.54 30 75.7621 30Z" fill="#4D5FB2"/>
<path d="M60.5739 41.7249H29.5762V44.3603H60.5739C61.3502 44.3635 62.1195 44.2134 62.8376 43.9185C63.5558 43.6236 64.2086 43.1898 64.7587 42.642C65.3087 42.0942 65.7452 41.4432 66.043 40.7263C66.3408 40.0094 66.4942 39.2407 66.4942 38.4644C66.4942 37.688 66.3408 36.9194 66.043 36.2025C65.7452 35.4855 65.3087 34.8345 64.7587 34.2867C64.2086 33.7389 63.5558 33.3051 62.8376 33.0102C62.1195 32.7154 61.3502 32.5652 60.5739 32.5684H60.0374C58.966 32.5696 57.9388 32.9958 57.1812 33.7534C56.4236 34.511 55.9974 35.5382 55.9962 36.6096H58.6315C58.6321 36.2369 58.7804 35.8797 59.0439 35.6161C59.3074 35.3526 59.6647 35.2043 60.0374 35.2037H60.5739C61.4386 35.2037 62.268 35.5472 62.8795 36.1587C63.4909 36.7702 63.8345 37.5995 63.8345 38.4643C63.8345 39.3291 63.4909 40.1584 62.8795 40.7699C62.268 41.3814 61.4386 41.7249 60.5739 41.7249Z" fill="#4D5FB2"/>
<path d="M71.7692 67.3644H71.038C70.4046 67.3638 69.7973 67.112 69.3495 66.6641C68.9016 66.2162 68.6498 65.609 68.6492 64.9756H66.0139C66.0154 66.3076 66.5452 67.5847 67.4871 68.5265C68.4289 69.4684 69.706 69.9983 71.038 69.9998H71.7692C72.7628 70.0034 73.7474 69.8108 74.6665 69.4331C75.5855 69.0553 76.421 68.4999 77.1249 67.7985C77.8288 67.0972 78.3873 66.2637 78.7684 65.3461C79.1495 64.4284 79.3456 63.4445 79.3456 62.4509C79.3456 61.4572 79.1495 60.4733 78.7684 59.5556C78.3873 58.638 77.8288 57.8045 77.1249 57.1032C76.421 56.4019 75.5855 55.8464 74.6665 55.4686C73.7474 55.0909 72.7628 54.8983 71.7692 54.9019H45.3887V57.5372H71.7692C73.0723 57.5372 74.3221 58.0549 75.2436 58.9764C76.1651 59.8978 76.6828 61.1476 76.6828 62.4508C76.6828 63.754 76.1651 65.0038 75.2436 65.9252C74.3221 66.8467 73.0723 67.3644 71.7692 67.3644Z" fill="#4D5FB2"/>
</svg>
