<svg width="38" height="38" viewBox="0 0 38 38" fill="none" xmlns="http://www.w3.org/2000/svg">
<path d="M34.8327 18.2084V24.5417C34.8327 30.0834 31.666 32.4584 26.916 32.4584H11.0827C6.33268 32.4584 3.16602 30.0834 3.16602 24.5417V13.4584C3.16602 7.91675 6.33268 5.54175 11.0827 5.54175H18.9994" stroke="#303439" stroke-width="2.5" stroke-miterlimit="10" stroke-linecap="round" stroke-linejoin="round"/>
<path d="M11.084 14.25L16.0398 18.2083C17.6707 19.5067 20.3465 19.5067 21.9773 18.2083" stroke="#303439" stroke-width="2.5" stroke-miterlimit="10" stroke-linecap="round" stroke-linejoin="round"/>
<path d="M30.8436 4.46503L31.2869 5.36752C31.5086 5.81085 32.0627 6.22253 32.5536 6.31753L33.1553 6.41252C34.9603 6.71336 35.3877 8.04336 34.0894 9.35752L33.5352 9.91168C33.1711 10.2917 32.9653 11.02 33.0761 11.5267L33.1553 11.8592C33.6461 14.0442 32.4903 14.8833 30.5903 13.7433L30.1786 13.5059C29.6877 13.2209 28.8961 13.2209 28.4053 13.5059L27.9936 13.7433C26.0777 14.8992 24.9219 14.0442 25.4286 11.8592L25.5077 11.5267C25.6186 11.02 25.4128 10.2917 25.0486 9.91168L24.4944 9.35752C23.1961 8.04336 23.6236 6.71336 25.4286 6.41252L26.0303 6.31753C26.5053 6.23836 27.0752 5.81085 27.2969 5.36752L27.7402 4.46503C28.5952 2.7392 29.9886 2.7392 30.8436 4.46503Z" stroke="#303439" stroke-width="2.5" stroke-linecap="round" stroke-linejoin="round"/>
</svg>
