<svg width="38" height="38" viewBox="0 0 38 38" fill="none" xmlns="http://www.w3.org/2000/svg">
<path d="M32.4713 5.54956C32.8247 5.55821 33.1516 5.73944 33.3468 6.03515C33.5275 6.32359 33.5544 6.68329 33.4189 6.99563L22.471 32.82C22.3379 33.2239 21.9717 33.5048 21.5482 33.5276C21.1248 33.5504 20.7307 33.3104 20.5555 32.9234L15.849 24.6598C15.5007 24.0265 14.9928 23.4953 14.3762 23.1204L6.13732 18.4102C5.79698 18.2189 5.59318 17.8509 5.61181 17.4598C5.63388 17.0617 5.8825 16.712 6.25043 16.5613L32.0489 5.64257C32.1813 5.58205 32.3258 5.55025 32.4713 5.54956ZM32.4709 4.00009C32.1161 3.99698 31.7647 4.07099 31.4413 4.21695L5.58106 15.1356C4.98589 15.3854 4.50586 15.8502 4.23627 16.4378C3.96627 17.0254 3.92627 17.6929 4.12352 18.3089C4.3211 18.9249 4.74213 19.444 5.30279 19.7636L13.5417 24.4635C13.9438 24.6962 14.2779 25.031 14.51 25.4343L19.2165 33.6979C19.5392 34.2589 20.0592 34.6794 20.6748 34.8766C21.2899 35.0737 21.9565 35.0336 22.5437 34.7638C23.1313 34.4944 23.5972 34.0151 23.851 33.4191L34.7989 7.59477C35.1296 6.80345 35.0489 5.89976 34.583 5.18038C34.1172 4.46065 33.3261 4.01878 32.4709 4.00009Z" fill="#303439"/>
<path d="M17.5372 22.2352C17.3318 22.2373 17.1346 22.1549 16.9916 22.0074C16.6903 21.7048 16.6903 21.2142 16.9916 20.9117L25.4739 12.4328C25.7752 12.1302 26.2636 12.1302 26.5651 12.4328C26.7123 12.5768 26.795 12.7745 26.795 12.9808C26.795 13.1871 26.7123 13.3848 26.5651 13.5288L18.0828 22.0078V22.0074C17.9387 22.1538 17.7419 22.2359 17.5372 22.2352L17.5372 22.2352Z" fill="#303439"/>
</svg>
