<svg width="100" height="100" viewBox="0 0 100 100" fill="none" xmlns="http://www.w3.org/2000/svg">
<path d="M29.1667 50C12.5 50 12.5 57.4583 12.5 66.6667V70.8333C12.5 82.3333 12.5 91.6667 33.3333 91.6667H66.6667C83.3333 91.6667 87.5 82.3333 87.5 70.8333V66.6667C87.5 57.4583 87.5 50 70.8333 50C66.6667 50 65.5 50.875 63.3333 52.5L59.0833 57C54.1667 62.25 45.8333 62.25 40.875 57L36.6667 52.5C34.5 50.875 33.3333 50 29.1667 50Z" stroke="#292D32" stroke-width="2.5" stroke-miterlimit="10" stroke-linecap="round" stroke-linejoin="round"/>
<path d="M79.1673 50.0002V25.0002C79.1673 15.7918 79.1673 8.3335 62.5007 8.3335H37.5007C20.834 8.3335 20.834 15.7918 20.834 25.0002V50.0002" stroke="#292D32" stroke-width="2.5" stroke-miterlimit="10" stroke-linecap="round" stroke-linejoin="round"/>
<path d="M43.959 38.4585H57.834" stroke="#292D32" stroke-width="2.5" stroke-linecap="round" stroke-linejoin="round"/>
<path d="M40.5 25.9585H61.3333" stroke="#292D32" stroke-width="2.5" stroke-linecap="round" stroke-linejoin="round"/>
</svg>
